<?xml version="1.0" encoding="UTF-8"?>
<svg xmlns="http://www.w3.org/2000/svg" xmlns:xlink="http://www.w3.org/1999/xlink" width="740pt" height="550pt" viewBox="0 0 740 550" version="1.1">
<g id="surface1">
<path id="entP_toFirstBarrier" style="fill:none;stroke-width:0.75;stroke-linecap:round;stroke-linejoin:round;stroke:rgb(0%,0%,0%);stroke-opacity:1;stroke-miterlimit:3;" d="M -9.001014 418.950619 L -9.001014 333.898845 " transform="matrix(1.255088,0,0,1.312023,675.066595,-4.742961)"/>
<path id="entP_toSecondBarrier" style="fill:none;stroke-width:0.75;stroke-linecap:round;stroke-linejoin:round;stroke:rgb(0%,0%,0%);stroke-opacity:1;stroke-miterlimit:3;" d="M -9.001014 418.950395 L -9.001014 333.898621 " transform="matrix(1.255088,0,0,1.312023,675.066595,-114.65673)"/>
<path id="entP_toEntExt1" style="fill:none;stroke-width:0.75;stroke-linecap:round;stroke-linejoin:round;stroke:rgb(0%,0%,0%);stroke-opacity:1;stroke-miterlimit:3;" d="M -0.00101406 418.948845 C -0.00101406 390.599246 6.569119 374.000945 16.970532 360.569671 C 26.600087 355.689191 39.51004 355.680623 37.508656 355.820191 " transform="matrix(1.255088,0,0,1.312023,663.770804,-116.330477)"/>
<path id="entP_toEntExt2" style="fill:none;stroke-width:0.75;stroke-linecap:round;stroke-linejoin:round;stroke:rgb(0%,0%,0%);stroke-opacity:1;stroke-miterlimit:3;" d="M 37.508656 355.820191 L 57.508656 355.820191" transform="matrix(1.255088,0,0,1.312023,663.770804,-116.330477)"/>
<path id="entP_toA1" style="fill:none;stroke-width:0.75;stroke-linecap:round;stroke-linejoin:round;stroke:rgb(0%,0%,0%);stroke-opacity:1;stroke-miterlimit:3;" d="M -0.00101406 418.950571 C -0.00101406 380.761083 -0.919152 369.060398 2.628906 360.170259 C 5.100098 353.989439 9.718799 349.169233 37.670652 349.580097 " transform="matrix(1.255088,0,0,1.312023,663.770804,-224.571023)"/>
<path id="entP_toA2" style="fill:none;stroke-width:0.75;stroke-linecap:round;stroke-linejoin:round;stroke:rgb(0%,0%,0%);stroke-opacity:1;stroke-miterlimit:3;" d="M -0.00101406 418.950571 C -0.00101406 346.739778 -3.570859 334.500206 2.389257 322.981134 C 5.081424 317.779837 9.718799 312.72145 38.069031 317.181405 " transform="matrix(1.255088,0,0,1.312023,663.770804,-224.571023)"/>
<path id="entP_toA3" style="fill:none;stroke-width:0.75;stroke-linecap:round;stroke-linejoin:round;stroke:rgb(0%,0%,0%);stroke-opacity:1;stroke-miterlimit:3;" d="M -0.00101406 418.950571 C -1.361103 312.518995 -6.879268 296.400036 6.139617 286.378533 C 10.518668 282.999327 17.010993 280.319781 36.049127 283.969919 " transform="matrix(1.255088,0,0,1.312023,663.770804,-224.571023)"/>
<path id="entP_toA4" style="fill:none;stroke-width:0.75;stroke-linecap:round;stroke-linejoin:round;stroke:rgb(0%,0%,0%);stroke-opacity:1;stroke-miterlimit:3;" d="M -0.00101406 418.950571 C -1.939997 280.400168 -7.719597 263.489254 6.889689 253.289114 C 10.889036 250.499409 16.441436 248.200954 35.470233 251.851091 " transform="matrix(1.255088,0,0,1.312023,663.770804,-224.571023)"/>
<path id="entP_toA5" style="fill:none;stroke-width:0.75;stroke-linecap:round;stroke-linejoin:round;stroke:rgb(0%,0%,0%);stroke-opacity:1;stroke-miterlimit:3;" d="M -0.00101406 418.950571 C -3.63933 237.801337 -7.34923 224.230924 7.969668 215.260399 C 11.399458 213.250739 15.800295 211.47033 36.450618 213.899785 " transform="matrix(1.255088,0,0,1.312023,663.770804,-224.571023)"/>
<path id="entP_toB1" style="fill:none;stroke-width:0.75;stroke-linecap:round;stroke-linejoin:round;stroke:rgb(0%,0%,0%);stroke-opacity:1;stroke-miterlimit:3;" d="M -0.00101406 418.950571 C -2.319701 316.359678 -23.570704 323.880271 -42.070405 324.240521 C -55.811351 324.499544 -68.039703 320.819634 -68.039703 375.899195 " transform="matrix(1.255088,0,0,1.312023,663.770804,-224.571023)"/>
<path id="entP_toB2" style="fill:none;stroke-width:0.75;stroke-linecap:round;stroke-linejoin:round;stroke:rgb(0%,0%,0%);stroke-opacity:1;stroke-miterlimit:3;" d="M -0.00101406 418.950571 C 0.811305 314.341086 -30.701057 322.579202 -60.059684 323.731407 C -84.220717 324.669249 -106.918954 320.819634 -102.060604 374.970286 " transform="matrix(1.255088,0,0,1.312023,663.770804,-224.571023)"/>
<path id="entP_toB3" style="fill:none;stroke-width:0.75;stroke-linecap:round;stroke-linejoin:round;stroke:rgb(0%,0%,0%);stroke-opacity:1;stroke-miterlimit:3;" d="M -0.00101406 418.950571 C 7.55884 317.601201 -32.568456 323.481316 -72.418754 324.029135 C -107.600555 324.511453 -142.56138 320.819634 -134.45998 374.041376 " transform="matrix(1.255088,0,0,1.312023,663.770804,-224.571023)"/>
<path id="entP_toB4" style="fill:none;stroke-width:0.75;stroke-linecap:round;stroke-linejoin:round;stroke:rgb(0%,0%,0%);stroke-opacity:1;stroke-miterlimit:3;" d="M -0.00101406 418.950571 C 12.958736 307.859562 -40.321275 322.841203 -87.389071 324.198839 C -132.390279 325.490976 -171.720818 314.341086 -166.859356 375.899195 " transform="matrix(1.255088,0,0,1.312023,663.770804,-224.571023)"/>
<path id="entP_toB5" style="fill:none;stroke-width:0.75;stroke-linecap:round;stroke-linejoin:round;stroke:rgb(0%,0%,0%);stroke-opacity:1;stroke-miterlimit:3;" d="M -0.00101406 418.950571 C 12.958736 301.381015 -58.170499 324.821089 -114.429011 324.139294 C -167.509833 323.49918 -207.360132 301.381015 -199.258732 375.899195 " transform="matrix(1.255088,0,0,1.312023,663.770804,-224.571023)"/>
<path id="entP_toB6" style="fill:none;stroke-width:0.75;stroke-linecap:round;stroke-linejoin:round;stroke:rgb(0%,0%,0%);stroke-opacity:1;stroke-miterlimit:3;" d="M -0.00101406 418.950571 C 6.478861 294.89949 -59.969427 323.430703 -123.000374 324.169067 C -182.918989 324.868726 -239.759508 300.449128 -234.49033 375.899195 " transform="matrix(1.255088,0,0,1.312023,663.770804,-224.571023)"/>
<path id="entP_toB7" style="fill:none;stroke-width:0.75;stroke-linecap:round;stroke-linejoin:round;stroke:rgb(0%,0%,0%);stroke-opacity:1;stroke-miterlimit:3;" d="M -0.00101406 418.950571 C 12.958736 294.89949 -56.001203 325.14859 -134.189207 324.130362 C -207.238751 323.168703 -288.358571 294.89949 -268.918946 375.899195 " transform="matrix(1.255088,0,0,1.312023,663.770804,-224.571023)"/>
<path id="entP_toB8" style="fill:none;stroke-width:0.75;stroke-linecap:round;stroke-linejoin:round;stroke:rgb(0%,0%,0%);stroke-opacity:1;stroke-miterlimit:3;" d="M -0.00101406 418.950571 C 12.958736 294.89949 -59.300275 323.481316 -146.439346 322.388657 C -228.598685 321.370429 -324.000997 293.970581 -304.561372 374.970286 " transform="matrix(1.255088,0,0,1.312023,663.770804,-224.571023)"/>
<path id="entP_toB9" style="fill:none;stroke-width:0.75;stroke-linecap:round;stroke-linejoin:round;stroke:rgb(0%,0%,0%);stroke-opacity:1;stroke-miterlimit:3;" d="M -0.00101406 418.950571 C 12.958736 294.89949 -62.250766 324.609703 -157.509911 323.350316 C -247.920042 322.138566 -356.400373 293.038694 -336.960747 374.041376 " transform="matrix(1.255088,0,0,1.312023,663.770804,-224.571023)"/>
<path id="entP_toB10" style="fill:none;stroke-width:0.75;stroke-linecap:round;stroke-linejoin:round;stroke:rgb(0%,0%,0%);stroke-opacity:1;stroke-miterlimit:3;" d="M -0.00101406 418.950571 C 12.958736 294.89949 -66.611143 322.760816 -168.571138 320.53977 C -266.690516 318.411019 -385.559811 288.420943 -370.978536 372.659921 " transform="matrix(1.255088,0,0,1.312023,663.770804,-224.571023)"/>
<path id="entP_toB11" style="fill:none;stroke-width:0.75;stroke-linecap:round;stroke-linejoin:round;stroke:rgb(0%,0%,0%);stroke-opacity:1;stroke-miterlimit:3;" d="M -0.00101406 418.950571 C 19.438611 294.89949 -77.298891 320.119974 -189.040946 318.131156 C -297.991239 316.198905 -421.199125 288.420943 -403.381024 372.659921 " transform="matrix(1.255088,0,0,1.312023,663.770804,-224.571023)"/>
<path id="entP_toC1" style="fill:none;stroke-width:0.75;stroke-linecap:round;stroke-linejoin:round;stroke:rgb(0%,0%,0%);stroke-opacity:1;stroke-miterlimit:3;" d="M -0.00101406 418.950571 C 3.238924 327.301158 -19.599368 326.029863 -40.809911 322.888839 C -55.630836 320.688634 -69.661228 317.58036 -64.998955 275.058939 " transform="matrix(1.255088,0,0,1.312023,663.770804,-224.571023)"/>
<path id="entP_toC2" style="fill:none;stroke-width:0.75;stroke-linecap:round;stroke-linejoin:round;stroke:rgb(0%,0%,0%);stroke-opacity:1;stroke-miterlimit:3;" d="M -0.00101406 418.950571 C 6.478861 333.779706 -23.720096 320.590384 -50.411455 321.379361 C -75.300774 322.108793 -97.140007 335.000388 -97.908753 275.058939 " transform="matrix(1.255088,0,0,1.312023,663.770804,-224.571023)"/>
<path id="entP_toC3" style="fill:none;stroke-width:0.75;stroke-linecap:round;stroke-linejoin:round;stroke:rgb(0%,0%,0%);stroke-opacity:1;stroke-miterlimit:3;" d="M -0.00101406 418.950571 C 9.718799 330.540432 -32.061146 320.250975 -67.190037 321.269202 C -101.550182 322.260634 -129.539383 334.071478 -131.220042 275.058939 " transform="matrix(1.255088,0,0,1.312023,663.770804,-224.571023)"/>
<path id="entP_toC4" style="fill:none;stroke-width:0.75;stroke-linecap:round;stroke-linejoin:round;stroke:rgb(0%,0%,0%);stroke-opacity:1;stroke-miterlimit:3;" d="M -0.00101406 418.950571 C 8.660606 317.101019 -45.979494 320.111043 -91.310609 323.579566 C -134.039815 326.860522 -168.480881 330.540432 -165.698456 275.058939 " transform="matrix(1.255088,0,0,1.312023,663.770804,-224.571023)"/>
<path id="entP_toC5" style="fill:none;stroke-width:0.75;stroke-linecap:round;stroke-linejoin:round;stroke:rgb(0%,0%,0%);stroke-opacity:1;stroke-miterlimit:3;" d="M -0.00101406 418.950571 C 10.839238 316.40136 -46.471243 320.879179 -101.491047 324.478703 C -153.840471 327.908522 -204.120194 330.540432 -196.831113 275.460871 " transform="matrix(1.255088,0,0,1.312023,663.770804,-224.571023)"/>
<path id="entP_toC6" style="fill:none;stroke-width:0.75;stroke-linecap:round;stroke-linejoin:round;stroke:rgb(0%,0%,0%);stroke-opacity:1;stroke-miterlimit:3;" d="M -0.00101406 418.950571 C 14.580261 301.381015 -66.038474 318.708747 -130.619362 324.681158 C -192.57033 330.409432 -239.759508 325.678544 -230.848901 275.460871 " transform="matrix(1.255088,0,0,1.312023,663.770804,-224.571023)"/>
<path id="entP_toC7" style="fill:none;stroke-width:0.75;stroke-linecap:round;stroke-linejoin:round;stroke:rgb(0%,0%,0%);stroke-opacity:1;stroke-miterlimit:3;" d="M -0.00101406 418.950571 C 19.438611 301.381015 -72.558809 319.441156 -146.55139 325.889931 C -219.800123 332.27916 -275.398821 327.301158 -266.491327 273.031416 " transform="matrix(1.255088,0,0,1.312023,663.770804,-224.571023)"/>
<path id="entP_toC8" style="fill:none;stroke-width:0.75;stroke-linecap:round;stroke-linejoin:round;stroke:rgb(0%,0%,0%);stroke-opacity:1;stroke-miterlimit:3;" d="M -0.00101406 418.950571 C 12.958736 301.381015 -58.970368 318.059701 -140.849597 326.160863 C -221.160212 334.101251 -311.041247 333.779706 -302.13064 273.439302 " transform="matrix(1.255088,0,0,1.312023,663.770804,-224.571023)"/>
<path id="entP_toC9" style="fill:none;stroke-width:0.75;stroke-linecap:round;stroke-linejoin:round;stroke:rgb(0%,0%,0%);stroke-opacity:1;stroke-miterlimit:3;" d="M -0.00101406 418.950571 C 12.958736 294.89949 -79.250323 312.009881 -171.459382 323.448566 C -260.68994 334.509138 -349.920498 340.26123 -333.309982 271.450483 " transform="matrix(1.255088,0,0,1.312023,663.770804,-224.571023)"/>
<path id="entP_toC10" style="fill:none;stroke-width:0.75;stroke-linecap:round;stroke-linejoin:round;stroke:rgb(0%,0%,0%);stroke-opacity:1;stroke-miterlimit:3;" d="M -0.00101406 418.950571 C 19.438611 301.381015 -90.348899 315.389087 -188.879104 325.089044 C -288.069124 334.860456 -375.839998 340.26123 -366.120186 273.540529 " transform="matrix(1.255088,0,0,1.312023,663.770804,-224.571023)"/>
<path id="entP_toC11" style="fill:none;stroke-width:0.75;stroke-linecap:round;stroke-linejoin:round;stroke:rgb(0%,0%,0%);stroke-opacity:1;stroke-miterlimit:3;" d="M -0.00101406 418.950571 C 12.958736 301.381015 -85.229113 310.640335 -195.67955 322.201089 C -302.681523 333.389683 -421.199125 346.739778 -400.141086 273.841234 " transform="matrix(1.255088,0,0,1.312023,663.770804,-224.571023)"/>
<path id="entP_toD1" style="fill:none;stroke-width:0.75;stroke-linecap:round;stroke-linejoin:round;stroke:rgb(0%,0%,0%);stroke-opacity:1;stroke-miterlimit:3;" d="M -0.00101406 418.950571 C 9.718799 228.479494 -19.020475 230.099131 -42.499907 225.46947 C -52.509167 223.489583 -61.559828 220.38131 -61.559828 175.829388 " transform="matrix(1.255088,0,0,1.312023,663.770804,-224.571023)"/>
<path id="entP_toD2" style="fill:none;stroke-width:0.75;stroke-linecap:round;stroke-linejoin:round;stroke:rgb(0%,0%,0%);stroke-opacity:1;stroke-miterlimit:3;" d="M -0.00101406 418.950571 C 3.238924 207.421238 -17.149963 227.711357 -57.669413 227.910834 C -76.810255 228.009084 -100.439079 223.620583 -95.580729 175.829388 " transform="matrix(1.255088,0,0,1.312023,663.770804,-224.571023)"/>
<path id="entP_toD3" style="fill:none;stroke-width:0.75;stroke-linecap:round;stroke-linejoin:round;stroke:rgb(0%,0%,0%);stroke-opacity:1;stroke-miterlimit:3;" d="M -0.00101406 418.950571 C 6.478861 210.660511 -17.819115 224.778743 -68.820899 228.839744 C -99.299966 231.269199 -139.321442 230.099131 -129.598517 176.639206 " transform="matrix(1.255088,0,0,1.312023,663.770804,-224.571023)"/>
<path id="entP_toD4" style="fill:none;stroke-width:0.75;stroke-linecap:round;stroke-linejoin:round;stroke:rgb(0%,0%,0%);stroke-opacity:1;stroke-miterlimit:3;" d="M -0.00101406 418.950571 C 6.478861 210.660511 -14.56984 222.230196 -72.910503 229.170221 C -113.361481 233.990427 -171.720818 236.580655 -163.619418 175.710297 " transform="matrix(1.255088,0,0,1.312023,663.770804,-224.571023)"/>
<path id="entP_toD5" style="fill:none;stroke-width:0.75;stroke-linecap:round;stroke-linejoin:round;stroke:rgb(0%,0%,0%);stroke-opacity:1;stroke-miterlimit:3;" d="M -0.00101406 418.950571 C 6.478861 197.700439 -20.959458 222.590447 -86.240621 231.409131 C -134.74009 237.959133 -204.120194 235.648768 -196.018794 174.781387 " transform="matrix(1.255088,0,0,1.312023,663.770804,-224.571023)"/>
<path id="entP_toD6" style="fill:none;stroke-width:0.75;stroke-linecap:round;stroke-linejoin:round;stroke:rgb(0%,0%,0%);stroke-opacity:1;stroke-miterlimit:3;" d="M -0.00101406 418.950571 C 9.718799 204.178987 -19.029812 221.441219 -95.540269 231.531199 C -156.529526 239.569838 -247.860908 243.059202 -230.848901 175.829388 " transform="matrix(1.255088,0,0,1.312023,663.770804,-224.571023)"/>
<path id="entP_toD7" style="fill:none;stroke-width:0.75;stroke-linecap:round;stroke-linejoin:round;stroke:rgb(0%,0%,0%);stroke-opacity:1;stroke-miterlimit:3;" d="M -0.00101406 418.950571 C 12.958736 204.178987 -20.850526 224.358947 -103.271301 232.189177 C -173.370354 238.849338 -278.638759 236.580655 -268.918946 176.639206 " transform="matrix(1.255088,0,0,1.312023,663.770804,-224.571023)"/>
<path id="entP_toD8" style="fill:none;stroke-width:0.75;stroke-linecap:round;stroke-linejoin:round;stroke:rgb(0%,0%,0%);stroke-opacity:1;stroke-miterlimit:3;" d="M -0.00101406 418.950571 C 19.438611 191.218915 -33.231383 225.859493 -128.16062 234.529314 C -210.270162 242.029066 -324.000997 230.099131 -304.561372 175.829388 " transform="matrix(1.255088,0,0,1.312023,663.770804,-224.571023)"/>
<path id="entP_toD9" style="fill:none;stroke-width:0.75;stroke-linecap:round;stroke-linejoin:round;stroke:rgb(0%,0%,0%);stroke-opacity:1;stroke-miterlimit:3;" d="M -0.00101406 418.950571 C 6.478861 197.700439 -3.07911 221.441219 -106.209343 232.760813 C -195.909862 242.609634 -356.400373 243.059202 -338.57916 176.639206 " transform="matrix(1.255088,0,0,1.312023,663.770804,-224.571023)"/>
<path id="entP_toD10" style="fill:none;stroke-width:0.75;stroke-linecap:round;stroke-linejoin:round;stroke:rgb(0%,0%,0%);stroke-opacity:1;stroke-miterlimit:3;" d="M -0.00101406 418.950571 C 12.958736 204.178987 -20.34944 221.709174 -135.978798 231.599676 C -237.278979 240.260565 -401.759499 243.059202 -370.16933 175.019569 " transform="matrix(1.255088,0,0,1.312023,663.770804,-224.571023)"/>
<path id="entP_toD11" style="fill:none;stroke-width:0.75;stroke-linecap:round;stroke-linejoin:round;stroke:rgb(0%,0%,0%);stroke-opacity:1;stroke-miterlimit:3;" d="M -0.00101406 418.950571 C 12.958736 191.218915 -28.248539 215.090694 -147.541111 229.971108 C -255.579491 243.449225 -427.679 249.540727 -403.381024 175.019569 " transform="matrix(1.255088,0,0,1.312023,663.770804,-224.571023)"/>
<path id="entP_toE1" style="fill:none;stroke-width:0.75;stroke-linecap:round;stroke-linejoin:round;stroke:rgb(0%,0%,0%);stroke-opacity:1;stroke-miterlimit:3;" d="M -0.00101406 418.950571 C 19.438611 294.89949 -119.100622 316.520451 -223.388641 325.440362 C -348.660003 336.149615 -424.510646 328.560545 -498.960739 349.979051 " transform="matrix(1.255088,0,0,1.312023,663.770804,-224.571023)"/>
<path id="entP_toE2" style="fill:none;stroke-width:0.75;stroke-linecap:round;stroke-linejoin:round;stroke:rgb(0%,0%,0%);stroke-opacity:1;stroke-miterlimit:3;" d="M -0.00101406 418.950571 C 21.07881 282.219282 -107.13993 315.010973 -207.030225 324.21968 C -329.911315 335.539274 -409.910697 311.161358 -499.159928 317.58036 " transform="matrix(1.255088,0,0,1.312023,663.770804,-224.571023)"/>
<path id="entP_toE3" style="fill:none;stroke-width:0.75;stroke-linecap:round;stroke-linejoin:round;stroke:rgb(0%,0%,0%);stroke-opacity:1;stroke-miterlimit:3;" d="M -0.00101406 418.950571 C 19.438611 268.979346 -198.060484 322.031384 -311.330694 328.310454 C -440.35864 335.470797 -434.158875 281.939418 -498.960739 283.320873 " transform="matrix(1.255088,0,0,1.312023,663.770804,-224.571023)"/>
<path id="entP_toE4" style="fill:none;stroke-width:0.75;stroke-linecap:round;stroke-linejoin:round;stroke:rgb(0%,0%,0%);stroke-opacity:1;stroke-miterlimit:3;" d="M -0.00101406 418.950571 C 25.918487 178.258843 -59.490127 217.969718 -151.011361 230.370062 C -263.039751 245.539271 -384.209059 219.7799 -498.960739 249.990295 " transform="matrix(1.255088,0,0,1.312023,663.770804,-224.571023)"/>
<path id="entP_toE5" style="fill:none;stroke-width:0.75;stroke-linecap:round;stroke-linejoin:round;stroke:rgb(0%,0%,0%);stroke-opacity:1;stroke-miterlimit:3;" d="M -0.00101406 418.950571 C 32.401474 178.258843 -57.389303 224.299402 -167.139466 233.710563 C -288.461278 244.101248 -434.158875 209.728625 -498.960739 216.659718 " transform="matrix(1.255088,0,0,1.312023,663.770804,-224.571023)"/>
<path style="fill:none;stroke-width:0.75;stroke-linecap:round;stroke-linejoin:round;stroke:rgb(0%,0%,0%);stroke-opacity:1;stroke-miterlimit:3;" d="M 0.000551922 410.001028 L -26.690807 409.899801 " transform="matrix(1.255088,0,0,1.312023,38.034464,-303.317303)"/>
</g>
</svg>
