<?xml version="1.0" encoding="UTF-8"?>
<svg xmlns="http://www.w3.org/2000/svg" xmlns:xlink="http://www.w3.org/1999/xlink" width="740pt" height="550pt" viewBox="0 0 740 550" version="1.1">
<g id="surface1">
<path id="extP_reverseFromA1" style="fill:none;stroke-width:0.75;stroke-linecap:round;stroke-linejoin:round;stroke:rgb(0%,0%,0%);stroke-opacity:1;stroke-miterlimit:3;" d="M -16.000763492 419.070956 C -33.168676 416.200864 -40.779203 418.761319 -48.099459 408.671338 C -53.910915 400.650562 -59.540951 384.650691 -54.969192 366.111206 " transform="matrix(1.291899,0,0,1.312022,739.424795,-348.78968)"/>
<path id="extP_reverseFromA2" style="fill:none;stroke-width:0.75;stroke-linecap:round;stroke-linejoin:round;stroke:rgb(0%,0%,0%);stroke-opacity:1;stroke-miterlimit:3;" d="M -16.000763492 419.069646 C -18.999275 418.429532 -36.189302 420.951283 -48.120625 414.460826 C -59.800985 408.119232 -58.778991 393.17034 -57.109936 375.741378 " transform="matrix(1.291899,0,0,1.312022,739.424795,-348.78968)"/>
<path id="extP_reverseFromA3" style="fill:none;stroke-width:0.75;stroke-linecap:round;stroke-linejoin:round;stroke:rgb(0%,0%,0%);stroke-opacity:1;stroke-miterlimit:3;" d="M -16.000763492 419.070951 C -66.020632 425.150544 -63.571476 396.809873 -62.818587 380.771298 C -62.029415 363.72045 -63.169331 360.570494 -65.210294 333.62021 " transform="matrix(1.291899,0,0,1.312022,739.424795,-349.78968)"/>
<path id="extP_reverseFromA4" style="fill:none;stroke-width:0.75;stroke-linecap:round;stroke-linejoin:round;stroke:rgb(0%,0%,0%);stroke-opacity:1;stroke-miterlimit:3;" d="M -16.000763492 419.069278 C -51.440593 418.670323 -55.97002 400.559566 -57.989818 392.479244 C -59.940072 384.669854 -59.540951 386.268651 -62.77928 353.869955 " transform="matrix(1.291899,0,0,1.312022,739.424795,-348.78968)"/>
<path id="extP_reverseFromA5" style="fill:none;stroke-width:0.75;stroke-linecap:round;stroke-linejoin:round;stroke:rgb(0%,0%,0%);stroke-opacity:1;stroke-miterlimit:3;" d="M -16.000983045 419.068762 C -18.080155 420.301354 -38.00932 421.840604 -49.269392 417.240716 C -60.979988 412.459214 -58.999498 401.029459 -59.440951 374.939607 " transform="matrix(1.291899,0,0,1.312022,739.295605,-348.78968)"/>
<path id="extP_toExtFromA1Reverse" style="fill:none;stroke-width:0.75;stroke-linecap:round;stroke-linejoin:round;stroke:rgb(0%,0%,0%);stroke-opacity:1;stroke-miterlimit:3;" d="M 0.0000784164 419.071115 C -14.579961 469.288795 -253.209436 438.53951 -360.679025 441.808556 C -465.56037 445.009126 -445.501477 480.629232 -452.289571 501.860172 " transform="matrix(1.291899,0,0,1.312022,668.785055,-409.646168)"/>
<path id="extP_toExtFromA2Reverse" style="fill:none;stroke-width:0.75;stroke-linecap:round;stroke-linejoin:round;stroke:rgb(0%,0%,0%);stroke-opacity:1;stroke-miterlimit:3;" d="M -0.000936116 419.070423 C 23.4898 500.879958 -226.560001 467.078966 -342.359745 465.200306 C -466.099594 463.199578 -436.588771 497.640684 -449.859571 525.350172 " transform="matrix(1.291899,0,0,1.312022,665.645741,-409.646168)"/>
<path id="extP_toExtFromA3Reverse" style="fill:none;stroke-width:0.75;stroke-linecap:round;stroke-linejoin:round;stroke:rgb(0%,0%,0%);stroke-opacity:1;stroke-miterlimit:3;" d="M 0.000894959 419.070006 C 6.099597 458.289636 -174.590698 443.391357 -287.079546 436.129786 C -404.980727 428.528805 -447.949816 429.308851 -441.778547 599.570218 " transform="matrix(1.291899,0,0,1.312022,652.209781,-448.646168)"/>
<path  id="extP_toExtFromA4Reverse" style="fill:none;stroke-width:0.75;stroke-linecap:round;stroke-linejoin:round;stroke:rgb(0%,0%,0%);stroke-opacity:1;stroke-miterlimit:3;" d="M -0.000279708 419.069001 C 21.4888 476.848957 -170.358763 459.38129 -285.130467 449.118627 C -410.43959 437.90919 -443.881158 435.271326 -444.189571 612.020172 " transform="matrix(1.291899,0,0,1.312022,655.320674,-429.646168)"/>
<path id="extP_toExtFromA5Reverse" style="fill:none;stroke-width:0.75;stroke-linecap:round;stroke-linejoin:round;stroke:rgb(0%,0%,0%);stroke-opacity:1;stroke-miterlimit:3;" d="M 0.001073 419.069653 C 21.060795 496.830095 -158.831257 480.859997 -275.649972 466.720923 C -400.841173 451.560644 -453.60084 438.511252 -447.429571 628.220172 " transform="matrix(1.291899,0,0,1.312022,663.506426,-409.646168)"/>
<path id="extP_reverseFromB1" style="fill:none;stroke-width:0.75;stroke-linecap:round;stroke-linejoin:round;stroke:rgb(0%,0%,0%);stroke-opacity:1;stroke-miterlimit:3;" d="M -0.0000165363 419.070945 C -1.430203 401.278755 1.330389 381.229792 9.639379 372.720743 C 17.31945 364.848831 29.749675 366.861468 39.470709 363.619217 " transform="matrix(1.291899,0,0,1.312022,708.773459,-355.057008)"/>
<path id="extP_reverseFromB2" style="fill:none;stroke-width:0.75;stroke-linecap:round;stroke-linejoin:round;stroke:rgb(0%,0%,0%);stroke-opacity:1;stroke-miterlimit:3;" d="M 0.000685413 419.06958 C 0.690078 400.271072 1.400635 382.898678 11.56917 374.088925 C 19.590913 367.148899 33.490632 365.529262 36.568707 365.740649 " transform="matrix(1.291899,0,0,1.312022,708.773459,-355.057008)"/>
<path id="extP_reverseFromB3" style="fill:none;stroke-width:0.75;stroke-linecap:round;stroke-linejoin:round;stroke:rgb(0%,0%,0%);stroke-opacity:1;stroke-miterlimit:3;" d="M 0.000543419 419.06933 C -2.838664 401.208663 -2.551417 380.528518 6.501391 371.81106 C 15.200432 363.430034 31.978665 366.079807 44.451221 365.189602 " transform="matrix(1.291899,0,0,1.312022,708.773459,-355.057008)"/>
<path id="extP_reverseFromB4" style="fill:none;stroke-width:0.75;stroke-linecap:round;stroke-linejoin:round;stroke:rgb(0%,0%,0%);stroke-opacity:1;stroke-miterlimit:3;" d="M -0.00143303 419.070374 C -2.858782 399.83123 -0.790606 379.838835 9.290243 372.029445 C 17.971142 365.309738 32.590489 367.611171 38.039107 367.030602 " transform="matrix(1.291899,0,0,1.312022,708.773459,-355.057008)"/>
<path id="extP_reverseFromB5" style="fill:none;stroke-width:0.75;stroke-linecap:round;stroke-linejoin:round;stroke:rgb(0%,0%,0%);stroke-opacity:1;stroke-miterlimit:3;" d="M 0.00130003 419.068806 C 0.578817 403.619732 -0.839275 386.19077 7.209681 377.020766 C 14.780901 368.410489 30.700418 367.070716 43.16995 366.180511 " transform="matrix(1.291899,0,0,1.312022,708.773459,-355.057008)"/>
<path id="extP_reverseFromB6" style="fill:none;stroke-width:0.75;stroke-linecap:round;stroke-linejoin:round;stroke:rgb(0%,0%,0%);stroke-opacity:1;stroke-miterlimit:3;" d="M -0.000187223 419.070239 C 0.359627 402.680345 -1.070559 384.641042 7.090272 375.310266 C 14.661491 366.661285 30.481228 365.479307 42.95076 364.589102 " transform="matrix(1.291899,0,0,1.312022,708.773459,-355.057008)"/>
<path id="extP_reverseFromB7" style="fill:none;stroke-width:0.75;stroke-linecap:round;stroke-linejoin:round;stroke:rgb(0%,0%,0%);stroke-opacity:1;stroke-miterlimit:3;" d="M -0.00146908 419.071444 C -0.0498475 401.249482 -1.340946 382.909474 7.010375 373.519152 C 14.629973 364.971398 30.259219 363.848966 42.728752 362.958761 " transform="matrix(1.291899,0,0,1.312022,708.773459,-355.057008)"/>
<path id="extP_reverseFromB8" style="fill:none;stroke-width:0.75;stroke-linecap:round;stroke-linejoin:round;stroke:rgb(0%,0%,0%);stroke-opacity:1;stroke-miterlimit:3;" d="M 0.00111462 419.07108 C 1.458514 403.368937 2.199308 383.701065 9.809835 373.899879 C 16.779348 364.950193 29.499843 364.250534 41.969375 363.360329 " transform="matrix(1.291899,0,0,1.312022,708.773459,-355.057008)"/>
<path id="extP_reverseFromB9" style="fill:none;stroke-width:0.75;stroke-linecap:round;stroke-linejoin:round;stroke:rgb(0%,0%,0%);stroke-opacity:1;stroke-miterlimit:3;" d="M 0.000414523 419.070375 C -1.51141 398.789185 -3.500972 381.678791 5.969099 372.961333 C 14.680235 364.928648 33.070074 363.990807 45.539606 363.100602 " transform="matrix(1.291899,0,0,1.312022,708.773459,-355.057008)"/>
<path id="extP_reverseFromB10" style="fill:none;stroke-width:0.75;stroke-linecap:round;stroke-linejoin:round;stroke:rgb(0%,0%,0%);stroke-opacity:1;stroke-miterlimit:3;" d="M -0.000427476 419.068602 C -0.771458 404.021459 -0.239296 386.211406 8.369035 376.910402 C 16.508701 368.10958 31.868843 366.900807 42.651178 365.879602 " transform="matrix(1.291899,0,0,1.312022,708.773459,-355.057008)"/>
<path id="extP_reverseFromB11" style="fill:none;stroke-width:0.75;stroke-linecap:round;stroke-linejoin:round;stroke:rgb(0%,0%,0%);stroke-opacity:1;stroke-miterlimit:3;" d="M 0.00125828 419.068624 C 0.0496367 403.810095 -0.301107 385.821406 7.950434 376.431084 C 15.820995 367.469489 31.550021 366.341102 44.539622 365.57892 " transform="matrix(1.291899,0,0,1.312022,708.773459,-355.057008)"/>
<path id="extP_toExtFromB1Reverse" style="fill:none;stroke-width:0.75;stroke-linecap:round;stroke-linejoin:round;stroke:rgb(0%,0%,0%);stroke-opacity:1;stroke-miterlimit:3;" d="M -0.00131419 419.071262 C -51.838768 435.13961 -262.130596 411.080259 -355.890957 418.130444 C -439.410215 424.400583 -430.469282 455.361255 -434.469571 475.940172 " transform="matrix(1.291899,0,0,1.312022,768.773459,-425.057008)"/>
<path id="extP_toExtFromB2Reverse" style="fill:none;stroke-width:0.75;stroke-linecap:round;stroke-linejoin:round;stroke:rgb(0%,0%,0%);stroke-opacity:1;stroke-miterlimit:3;" d="M -0.00129251 419.070694 C -39.511326 431.649677 -227.809124 411.91035 -314.999093 416.340534 C -395.50982 420.419399 -389.801169 445.101 -397.529618 476.121218 " transform="matrix(1.291899,0,0,1.312022,768.773459,-425.057008)"/>
<path id="extP_toExtFromB3Reverse" style="fill:none;stroke-width:0.75;stroke-linecap:round;stroke-linejoin:round;stroke:rgb(0%,0%,0%);stroke-opacity:1;stroke-miterlimit:3;" d="M 0.00019718 419.068648 C -51.840281 423.799536 -204.800683 415.099942 -283.890293 417.469852 C -354.181083 419.56883 -366.121477 430.409084 -372.909571 477.560172 " transform="matrix(1.291899,0,0,1.312022,778.773459,-425.057008)"/>
<path id="extP_toExtFromB4Reverse" style="fill:none;stroke-width:0.75;stroke-linecap:round;stroke-linejoin:round;stroke:rgb(0%,0%,0%);stroke-opacity:1;stroke-miterlimit:3;" d="M -0.000917086 419.068648 C -38.519193 422.909331 -154.578972 415.689442 -228.099019 416.27001 C -295.611075 416.808897 -327.241477 423.930536 -334.029571 477.560172 " transform="matrix(1.291899,0,0,1.312022,762.773459,-425.057008)"/>
<path id="extP_toExtFromB5Reverse" style="fill:none;stroke-width:0.75;stroke-linecap:round;stroke-linejoin:round;stroke:rgb(0%,0%,0%);stroke-opacity:1;stroke-miterlimit:3;" d="M 0.000949873 419.069557 C -38.52035 422.91024 -145.99901 417.94117 -212.120186 418.768852 C -272.759485 419.519125 -298.599598 425.14915 -306.778571 478.201195 " transform="matrix(1.291899,0,0,1.312022,768.773459,-425.057008)"/>
<path id="extP_toExtFromB6Reverse" style="fill:none;stroke-width:0.75;stroke-linecap:round;stroke-linejoin:round;stroke:rgb(0%,0%,0%);stroke-opacity:1;stroke-miterlimit:3;" d="M -0.00128747 419.069102 C -38.519564 422.909785 -155.341302 411.250781 -213.909401 419.599057 C -265.399135 426.941014 -271.869746 449.74991 -272.489594 478.531218 " transform="matrix(1.291899,0,0,1.312022,768.773459,-425.057008)"/>
<path id="extP_toExtFromB7Reverse" style="fill:none;stroke-width:0.75;stroke-linecap:round;stroke-linejoin:round;stroke:rgb(0%,0%,0%);stroke-opacity:1;stroke-miterlimit:3;" d="M 0.000798831 419.070761 C -35.898997 422.161171 -146.029397 414.348804 -194.428962 424.790104 C -237.38898 434.061335 -231.710565 457.709823 -236.569571 478.881218 " transform="matrix(1.291899,0,0,1.312022,768.773459,-425.057008)"/>
<path id="extP_toExtFromB8Reverse" style="fill:none;stroke-width:0.75;stroke-linecap:round;stroke-linejoin:round;stroke:rgb(0%,0%,0%);stroke-opacity:1;stroke-miterlimit:3;" d="M 0.000351802 419.070352 C -35.899444 422.160762 -118.230407 416.191328 -157.429005 423.050967 C -192.699881 429.219879 -193.03853 445.791386 -201.740594 479.220218 " transform="matrix(1.291899,0,0,1.312022,768.773459,-425.057008)"/>
<path id="extP_toExtFromB9Reverse" style="fill:none;stroke-width:0.75;stroke-linecap:round;stroke-linejoin:round;stroke:rgb(0%,0%,0%);stroke-opacity:1;stroke-miterlimit:3;" d="M 0.000653203 419.069624 C -35.899142 422.160035 -87.400971 419.090465 -121.4896 423.609967 C -151.190914 427.539969 -167.669806 437.239927 -171.219571 479.520195 " transform="matrix(1.291899,0,0,1.312022,768.773459,-425.057008)"/>
<path id="extP_toExtFromB10Reverse" style="fill:none;stroke-width:0.75;stroke-linecap:round;stroke-linejoin:round;stroke:rgb(0%,0%,0%);stroke-opacity:1;stroke-miterlimit:3;" d="M 0.00117823 419.068602 C -35.581134 418.419556 -56.290112 415.388691 -83.89906 420.950239 C -107.120691 425.630514 -135.21947 436.369541 -133.870922 477.420195 " transform="matrix(1.291899,0,0,1.312022,758.773459,-425.057008)"/>
<path id="extP_toExtFromB11Reverse" style="fill:none;stroke-width:0.75;stroke-linecap:round;stroke-linejoin:round;stroke:rgb(0%,0%,0%);stroke-opacity:1;stroke-miterlimit:3;" d="M 0.000815024 419.068534 C -38.919607 420.429148 -52.949342 419.88133 -70.320211 425.058809 C -85.130048 429.480061 -102.358806 438.060564 -105.908571 478.721195 " transform="matrix(1.291899,0,0,1.312022,768.773459,-425.057008)"/>
<path id="extP_toExtFromC1" style="fill:none;stroke-width:0.75;stroke-linecap:round;stroke-linejoin:round;stroke:rgb(0%,0%,0%);stroke-opacity:1;stroke-miterlimit:3;" d="M 0.000802468 419.068898 C 16.600641 339.280932 -86.551176 374.278788 -188.049057 372.120264 C -298.929323 369.771195 -407.841193 323.078607 -398.428571 532.220195 " transform="matrix(1.291899,0,0,1.312022,712.202088,-350.663698)"/>
<path id="extP_toExtFromC2" style="fill:none;stroke-width:0.75;stroke-linecap:round;stroke-linejoin:round;stroke:rgb(0%,0%,0%);stroke-opacity:1;stroke-miterlimit:3;" d="M -0.000630029 419.069715 C 16.599208 349.011481 -92.89925 376.369651 -185.870438 373.460855 C -289.249028 370.218603 -372.19984 329.569882 -366.028571 535.469218 " transform="matrix(1.291899,0,0,1.312022,712.202088,-350.663698)"/>
<path id="extP_toExtFromC3" style="fill:none;stroke-width:0.75;stroke-linecap:round;stroke-linejoin:round;stroke:rgb(0%,0%,0%);stroke-opacity:1;stroke-miterlimit:3;" d="M 0.00026112 419.069329 C 16.600099 346.548889 -97.959949 367.77983 -182.730998 370.298604 C -280.098572 373.189537 -338.179864 351.410777 -332.008594 534.629241 " transform="matrix(1.291899,0,0,1.312022,712.202088,-350.663698)"/>
<path id="extP_toExtFromC4" style="fill:none;stroke-width:0.75;stroke-linecap:round;stroke-linejoin:round;stroke:rgb(0%,0%,0%);stroke-opacity:1;stroke-miterlimit:3;" d="M 0.00065562 419.070579 C 13.428685 345.278844 -108.36091 362.948965 -182.930164 368.290194 C -273.440101 374.780651 -294.369806 363.100806 -297.919571 533.359195 " transform="matrix(1.291899,0,0,1.312022,712.202088,-350.663698)"/>
<path id="extP_toExtFromC5" style="fill:none;stroke-width:0.75;stroke-linecap:round;stroke-linejoin:round;stroke:rgb(0%,0%,0%);stroke-opacity:1;stroke-miterlimit:3;" d="M 0.000459623 419.071397 C 16.639605 345.249889 -67.550903 370.050581 -131.449697 369.809422 C -210.708632 369.499786 -258.760477 330.670178 -265.548571 533.330241 " transform="matrix(1.291899,0,0,1.312022,712.202088,-350.663698)"/>
<path id="extP_toExtFromC6" style="fill:none;stroke-width:0.75;stroke-linecap:round;stroke-linejoin:round;stroke:rgb(0%,0%,0%);stroke-opacity:1;stroke-miterlimit:3;" d="M 0.00102005 419.069352 C 11.509032 365.028852 -51.180302 371.840855 -108.650816 369.459035 C -177.33 366.609784 -238.54984 350.630755 -232.378571 533.849218 " transform="matrix(1.291899,0,0,1.312022,712.202088,-350.663698)"/>
<path id="extP_toExtFromC7" style="fill:none;stroke-width:0.75;stroke-linecap:round;stroke-linejoin:round;stroke:rgb(0%,0%,0%);stroke-opacity:1;stroke-miterlimit:3;" d="M -0.00107261 419.070101 C 10.968729 358.52128 -54.98917 363.019941 -102.400001 368.370102 C -166.99121 375.649537 -197.17026 384.518837 -196.698571 535.261195 " transform="matrix(1.291899,0,0,1.312022,712.202088,-350.663698)"/>
<path id="extP_toExtFromC8" style="fill:none;stroke-width:0.75;stroke-linecap:round;stroke-linejoin:round;stroke:rgb(0%,0%,0%);stroke-opacity:1;stroke-miterlimit:3;" d="M -0.00118854 419.069715 C 19.398549 365.571078 -53.008795 359.131235 -95.590857 367.068647 C -163.060581 379.659539 -155.601237 428.358809 -161.600158 533.688808 " transform="matrix(1.291899,0,0,1.312022,712.202088,-350.663698)"/>
<path id="extP_toExtFromC9" style="fill:none;stroke-width:0.75;stroke-linecap:round;stroke-linejoin:round;stroke:rgb(0%,0%,0%);stroke-opacity:1;stroke-miterlimit:3;" d="M 0.000402616 419.070078 C 13.358888 376.548651 -29.849069 362.260713 -61.799978 368.158693 C -112.11956 377.450765 -134.539924 436.808676 -129.169922 535.779217 " transform="matrix(1.291899,0,0,1.312022,712.202088,-350.663698)"/>
<path id="extP_toExtFromC10" style="fill:none;stroke-width:0.75;stroke-linecap:round;stroke-linejoin:round;stroke:rgb(0%,0%,0%);stroke-opacity:1;stroke-miterlimit:3;" d="M -0.00029003 419.069373 C 13.391455 377.94131 -24.921213 368.830852 -49.470226 371.879581 C -100.149623 378.17056 -92.139974 436.298858 -97.080618 536.871172 " transform="matrix(1.291899,0,0,1.312022,712.202088,-350.663698)"/>
<path id="extP_toExtFromC11" style="fill:none;stroke-width:0.75;stroke-linecap:round;stroke-linejoin:round;stroke:rgb(0%,0%,0%);stroke-opacity:1;stroke-miterlimit:3;" d="M 0.001119 419.068645 C 7.118791 379.420288 -13.750441 372.92983 -28.300244 373.53124 C -68.998572 375.198513 -60.450714 432.260946 -65.110158 536.560808 " transform="matrix(1.291899,0,0,1.312022,712.202088,-350.663698)"/>
<path id="extP_reverseFromD1" style="fill:none;stroke-width:0.75;stroke-linecap:round;stroke-linejoin:round;stroke:rgb(0%,0%,0%);stroke-opacity:1;stroke-miterlimit:3;" d="M -0.00132527 419.071244 C 0.760635 433.871272 -2.420245 455.819736 9.801348 466.939855 C 22.110627 478.140359 28.079388 478.318996 32.088786 478.318996 " transform="matrix(1.291899,0,0,1.312022,748.165775,-360.576932)"/>
<path id="extP_reverseFromD2" style="fill:none;stroke-width:0.75;stroke-linecap:round;stroke-linejoin:round;stroke:rgb(0%,0%,0%);stroke-opacity:1;stroke-miterlimit:3;" d="M -0.000630029 419.069562 C -1.621306 437.879979 1.420485 457.550828 13.590676 468.00106 C 25.839482 478.54061 47.358799 479.710679 63.689532 479.710679 " transform="matrix(1.291899,0,0,1.312022,748.165775,-360.576932)"/>
<path id="extP_reverseFromD3" style="fill:none;stroke-width:0.75;stroke-linecap:round;stroke-linejoin:round;stroke:rgb(0%,0%,0%);stroke-opacity:1;stroke-miterlimit:3;" d="M -0.00110982 419.070176 C -1.071482 434.328705 -2.060215 455.890123 10.079739 466.688696 C 22.05944 477.341382 46.820109 477.511087 59.900419 476.061154 " transform="matrix(1.291899,0,0,1.312022,748.165775,-360.576932)"/>
<path id="extP_reverseFromD4" style="fill:none;stroke-width:0.75;stroke-linecap:round;stroke-linejoin:round;stroke:rgb(0%,0%,0%);stroke-opacity:1;stroke-miterlimit:3;" d="M -0.00134642 419.06979 C -6.928528 462.058649 16.840384 470.588539 28.378632 473.869494 C 40.110393 477.209996 39.191204 475.111018 61.118713 476.310859 " transform="matrix(1.291899,0,0,1.312022,748.165775,-360.576932)"/>
<path id="extP_reverseFromD5" style="fill:none;stroke-width:0.75;stroke-linecap:round;stroke-linejoin:round;stroke:rgb(0%,0%,0%);stroke-opacity:1;stroke-miterlimit:3;" d="M -0.000232928 419.069562 C -3.238562 436.888547 -1.140149 445.01055 2.149582 451.459326 C 4.979718 456.991101 8.680666 461.299216 12.000634 464.300308 C 14.818675 466.839923 17.370636 468.438719 19.580924 469.960106 C 21.951465 471.570811 23.928933 473.080289 29.008664 474.500449 C 35.288785 476.260018 46.31906 477.879655 65.029406 477.980882 " transform="matrix(1.291899,0,0,1.312022,748.165775,-360.576932)"/>
<path id="extP_reverseFromD6" style="fill:none;stroke-width:0.75;stroke-linecap:round;stroke-linejoin:round;stroke:rgb(0%,0%,0%);stroke-opacity:1;stroke-miterlimit:3;" d="M 0.00068187 419.069744 C -1.619994 436.07891 1.170834 445.260823 4.321478 451.331484 C 7.641445 457.750487 11.369606 460.700966 16.388864 464.181399 C 20.748968 467.209287 26.088733 470.651015 30.739107 472.809539 C 34.509598 474.569108 37.829566 475.489086 40.659702 476.468609 C 43.459602 477.451109 45.790836 478.481246 64.470945 478.150768 " transform="matrix(1.291899,0,0,1.312022,748.165775,-360.576932)"/>
<path id="extP_reverseFromD7" style="fill:none;stroke-width:0.75;stroke-linecap:round;stroke-linejoin:round;stroke:rgb(0%,0%,0%);stroke-opacity:1;stroke-miterlimit:3;" d="M -0.00087429 419.070334 C -1.609456 438.309479 -0.0492527 447.699801 1.979616 454.779758 C 3.479347 459.99892 5.239111 463.958694 7.150058 466.489377 C 8.75864 468.621105 10.479096 469.728651 12.541226 470.860015 C 15.250416 472.33972 18.540147 473.840266 24.5814 475.281267 C 32.349156 477.121222 44.679601 478.85995 63.480656 476.49004 " transform="matrix(1.291899,0,0,1.312022,748.165775,-360.576932)"/>
<path id="extP_reverseFromD8" style="fill:none;stroke-width:0.75;stroke-linecap:round;stroke-linejoin:round;stroke:rgb(0%,0%,0%);stroke-opacity:1;stroke-miterlimit:3;" d="M 0.000482403 419.069925 C -3.24087 438.508547 -0.428876 447.130732 2.830619 453.570576 C 5.518643 458.879055 8.521128 462.698898 11.53873 465.530286 C 13.900201 467.739423 16.279814 469.341196 18.178666 470.829833 C 20.358717 472.538788 21.90985 474.110789 26.980511 475.099244 C 33.178993 476.310995 44.629555 476.650404 62.139512 476.031131 " transform="matrix(1.291899,0,0,1.312022,748.165775,-360.576932)"/>
<path id="extP_reverseFromD9" style="fill:none;stroke-width:0.75;stroke-linecap:round;stroke-linejoin:round;stroke:rgb(0%,0%,0%);stroke-opacity:1;stroke-miterlimit:3;" d="M 0.0013972 419.069925 C -4.860632 435.269273 -0.258637 445.948755 4.830166 453.240099 C 8.969543 459.149987 13.420356 462.829898 15.830205 465.050944 C 18.070729 467.12015 18.539395 467.921037 22.101254 469.409674 C 24.771137 470.529129 29.161477 472.038606 33.1406 473.131266 C 39.308846 474.81938 44.479287 475.510108 62.170663 476.790336 " transform="matrix(1.291899,0,0,1.312022,748.165775,-360.576932)"/>
<path id="extP_reverseFromD10" style="fill:none;stroke-width:0.75;stroke-linecap:round;stroke-linejoin:round;stroke:rgb(0%,0%,0%);stroke-opacity:1;stroke-miterlimit:3;" d="M 0.000302882 419.070288 C -4.051388 440.128547 0.208935 448.390482 3.238632 453.791257 C 5.950846 458.650168 7.680374 461.189783 10.788686 464.021171 C 13.630917 466.611399 17.631206 469.439809 22.169704 471.071355 C 26.378625 472.589765 31.050164 473.081015 34.70878 473.378743 C 39.120285 473.730061 42.059273 473.789607 62.411461 476.951471 " transform="matrix(1.291899,0,0,1.312022,748.165775,-360.576932)"/>
<path id="extP_reverseFromD11" style="fill:none;stroke-width:0.75;stroke-linecap:round;stroke-linejoin:round;stroke:rgb(0%,0%,0%);stroke-opacity:1;stroke-miterlimit:3;" d="M 0.000728486 419.071151 C -5.650473 436.038636 -1.009171 447.798868 2.588973 454.959212 C 5.648907 461.020942 7.97107 463.789807 9.960631 466.100171 C 11.841342 468.279536 13.419687 470.059946 18.048895 472.099378 C 21.970569 473.829174 28.081365 475.749516 32.571485 476.508721 C 38.240829 477.461449 41.330999 476.541471 55.911039 476.541471 " transform="matrix(1.291899,0,0,1.312022,748.165775,-360.576932)"/>
<path id="extP_toExtFromD1Reverse" style="fill:none;stroke-width:0.75;stroke-linecap:round;stroke-linejoin:round;stroke:rgb(0%,0%,0%);stroke-opacity:1;stroke-miterlimit:3;" d="M -20.00149138 419.070996 C -52.19876 421.038974 -165.389094 417.689541 -270.980997 408.608855 C -370.229282 400.078965 -462.780182 386.478777 -462.780182 567.919808 " transform="matrix(1.291899,0,0,1.312022,830.165775,-285.576932)"/>
<path id="extP_toExtFromD2Reverse" style="fill:none;stroke-width:0.75;stroke-linecap:round;stroke-linejoin:round;stroke:rgb(0%,0%,0%);stroke-opacity:1;stroke-miterlimit:3;" d="M 0.000531796 419.070679 C -52.589811 418.799747 -174.461045 415.539632 -270.791507 406.37856 C -361.401224 397.771261 -429.409158 383.950755 -429.720594 567.169218 " transform="matrix(1.291899,0,0,1.312022,825.165775,-285.576932)"/>
<path id="extP_toExtFromD3Reverse" style="fill:none;stroke-width:0.75;stroke-linecap:round;stroke-linejoin:round;stroke:rgb(0%,0%,0%);stroke-opacity:1;stroke-miterlimit:3;" d="M 0.000395005 419.070177 C -35.838927 421.821178 -159.890213 413.541379 -253.980151 409.700696 C -343.68882 406.029717 -406.178593 406.398899 -393.518571 570.771218 " transform="matrix(1.291899,0,0,1.312022,825.165775,-285.576932)"/>
<path id="extP_toExtFromD4Reverse" style="fill:none;stroke-width:0.75;stroke-linecap:round;stroke-linejoin:round;stroke:rgb(0%,0%,0%);stroke-opacity:1;stroke-miterlimit:3;" d="M -0.000239723 419.069905 C -30.590506 423.750179 -161.599209 416.720835 -243.878771 411.841083 C -326.639093 406.919649 -360.110897 404.168648 -362.239547 570.080218 " transform="matrix(1.291899,0,0,1.312022,825.165775,-285.576932)"/>
<path id="extP_toExtFromD5Reverse" style="fill:none;stroke-width:0.75;stroke-linecap:round;stroke-linejoin:round;stroke:rgb(0%,0%,0%);stroke-opacity:1;stroke-miterlimit:3;" d="M -0.000570541 419.068951 C -35.978981 419.860905 -149.139079 407.960741 -219.278686 403.310239 C -291.90071 398.510874 -318.399978 401.491125 -330.618547 568.909195 " transform="matrix(1.291899,0,0,1.312022,825.165775,-285.576932)"/>
<path id="extP_toExtFromD6Reverse" style="fill:none;stroke-width:0.75;stroke-linecap:round;stroke-linejoin:round;stroke:rgb(0%,0%,0%);stroke-opacity:1;stroke-miterlimit:3;" d="M -0.0000546271 419.070791 C -50.271258 421.089383 -141.370806 403.550262 -202.309447 400.608715 C -262.038627 397.72076 -292.810312 408.858741 -296.039571 569.539241 " transform="matrix(1.291899,0,0,1.312022,825.165775,-285.576932)"/>
<path id="extP_toExtFromD7Reverse" style="fill:none;stroke-width:0.75;stroke-linecap:round;stroke-linejoin:round;stroke:rgb(0%,0%,0%);stroke-opacity:1;stroke-miterlimit:3;" d="M -0.00132066 419.071063 C -69.109863 418.820972 -123.970967 407.688945 -170.411206 406.79874 C -214.789316 405.959148 -251.490379 414.459266 -257.259503 568.309898 " transform="matrix(1.291899,0,0,1.312022,825.165775,-285.576932)"/>
<path id="extP_toExtFromD8Reverse" style="fill:none;stroke-width:0.75;stroke-linecap:round;stroke-linejoin:round;stroke:rgb(0%,0%,0%);stroke-opacity:1;stroke-miterlimit:3;" d="M -0.00046453 419.069176 C -75.389128 410.801286 -109.849666 406.418739 -143.750829 406.499126 C -178.410928 406.579512 -212.481415 411.3104 -220.808547 572.470241 " transform="matrix(1.291899,0,0,1.312022,825.165775,-285.576932)"/>
<path id="extP_toExtFromD9Reverse" style="fill:none;stroke-width:0.75;stroke-linecap:round;stroke-linejoin:round;stroke:rgb(0%,0%,0%);stroke-opacity:1;stroke-miterlimit:3;" d="M 0.000639468 419.071381 C -75.829477 403.881329 -95.909536 407.078922 -121.268888 411.080378 C -149.110656 415.480789 -183.31116 420.848814 -186.818594 571.719195 " transform="matrix(1.291899,0,0,1.312022,818.165775,-285.576932)"/>
<path id="extP_toExtFromD10Reverse" style="fill:none;stroke-width:0.75;stroke-linecap:round;stroke-linejoin:round;stroke:rgb(0%,0%,0%);stroke-opacity:1;stroke-miterlimit:3;" d="M 0.00143714 419.069517 C -73.950992 407.258671 -72.191228 410.500922 -88.95132 412.57906 C -108.919504 415.059129 -155.160182 415.868947 -155.468594 573.170241 " transform="matrix(1.291899,0,0,1.312022,825.165775,-285.576932)"/>
<path id="extP_toExtFromD11Reverse" style="fill:none;stroke-width:0.75;stroke-linecap:round;stroke-linejoin:round;stroke:rgb(0%,0%,0%);stroke-opacity:1;stroke-miterlimit:3;" d="M 0.00103908 419.069494 C -26.601033 411.670968 -42.000482 411.179718 -57.499711 412.391468 C -83.66033 414.418992 -110.090054 421.260767 -116.548571 574.349218 " transform="matrix(1.291899,0,0,1.312022,825.165775,-285.576932)"/>
<path id="extP_reverseFromE1" style="fill:none;stroke-width:0.75;stroke-linecap:round;stroke-linejoin:round;stroke:rgb(0%,0%,0%);stroke-opacity:1;stroke-miterlimit:3;" d="M -0.00142882 419.071319 C 9.361236 419.690592 24.799992 420.830888 33.350874 411.869293 C 39.340724 405.590222 41.959205 394.368877 41.959205 386.270691 " transform="matrix(1.291899,0,0,1.312022,740.568252,-335.280156)"/>
<path id="extP_reverseFromE2" style="fill:none;stroke-width:0.75;stroke-linecap:round;stroke-linejoin:round;stroke:rgb(0%,0%,0%);stroke-opacity:1;stroke-miterlimit:3;" d="M -0.00142882 419.070372 C 8.351336 422.538896 23.551225 423.661328 32.03861 414.91112 C 38.110099 408.670754 40.740674 397.380931 40.740674 389.741246 " transform="matrix(1.291899,0,0,1.312022,740.568252,-335.280156)"/>
<path id="extP_reverseFromE3" style="fill:none;stroke-width:0.75;stroke-linecap:round;stroke-linejoin:round;stroke:rgb(0%,0%,0%);stroke-opacity:1;stroke-miterlimit:3;" d="M -0.000583372 419.070951 C 2.861234 419.329973 21.680431 420.860292 31.029556 412.839516 C 38.089779 406.780764 39.749763 395.291463 39.770928 387.830415 " transform="matrix(1.291899,0,0,1.312022,740.568252,-335.280156)"/>
<path id="extP_reverseFromE4" style="fill:none;stroke-width:0.75;stroke-linecap:round;stroke-linejoin:round;stroke:rgb(0%,0%,0%);stroke-opacity:1;stroke-miterlimit:3;" d="M 0.00122017 419.070527 C 5.339406 419.799959 20.019227 420.910482 28.38869 412.589001 C 34.798828 406.220612 37.520113 394.341289 37.789217 384.590717 " transform="matrix(1.291899,0,0,1.312022,740.568252,-335.280156)"/>
<path id="extP_reverseFromE5" style="fill:none;stroke-width:0.75;stroke-linecap:round;stroke-linejoin:round;stroke:rgb(0%,0%,0%);stroke-opacity:1;stroke-miterlimit:3;" d="M 0.0012766 419.069783 C 15.641038 417.450146 19.620161 424.780195 26.290333 414.99985 C 30.078967 409.450211 34.72934 398.380706 34.72934 390.249771 " transform="matrix(1.291899,0,0,1.312022,740.568252,-335.280156)"/>
<path id="extP_toExtFromE1Reverse" style="fill:none;stroke-width:0.75;stroke-linecap:round;stroke-linejoin:round;stroke:rgb(0%,0%,0%);stroke-opacity:1;stroke-miterlimit:3;" d="M -2.369742 419.070851 C -5.958814 440.120178 -7.990707 448.459522 -9.408799 455.360843 C -10.669661 461.479141 -11.458834 466.469052 -15.631471 481.781172 " transform="matrix(1.291899,0,0,1.312022,800.568252,-395.280156)"/>
<path id="extP_toExtFromE2Reverse" style="fill:none;stroke-width:0.75;stroke-linecap:round;stroke-linejoin:round;stroke:rgb(0%,0%,0%);stroke-opacity:1;stroke-miterlimit:3;" d="M -2.979873 419.069314 C -6.568945 439.800073 -8.050534 445.921348 -9.220686 451.268532 C -11.040924 459.661468 -12.068965 466.140016 -15.020047 514.589195 " transform="matrix(1.291899,0,0,1.312022,800.568252,-395.280156)"/>
<path id="extP_toExtFromE3Reverse" style="fill:none;stroke-width:0.75;stroke-linecap:round;stroke-linejoin:round;stroke:rgb(0%,0%,0%);stroke-opacity:1;stroke-miterlimit:3;" d="M -2.448795 419.069483 C -9.149204 457.389976 -12.239374 475.721052 -12.928766 487.058511 C -13.651418 498.928903 -11.749543 503.159609 -15.550271 545.660195 " transform="matrix(1.291899,0,0,1.312022,800.568252,-395.280156)"/>
<path id="extP_toExtFromE4Reverse" style="fill:none;stroke-width:0.75;stroke-linecap:round;stroke-linejoin:round;stroke:rgb(0%,0%,0%);stroke-opacity:1;stroke-miterlimit:3;" d="M -2.419722 419.069331 C -6.008795 440.199044 -6.970316 444.149887 -7.789725 447.779183 C -10.250976 458.598597 -11.508814 466.550896 -15.578647 584.019241 " transform="matrix(1.291899,0,0,1.312022,800.568252,-395.280156)"/>
<path id="extP_toExtFromE5Reverse" style="fill:none;stroke-width:0.75;stroke-linecap:round;stroke-linejoin:round;stroke:rgb(0%,0%,0%);stroke-opacity:1;stroke-miterlimit:3;" d="M -2.718905 419.068771 C -6.311001 440.201462 -7.121339 443.559827 -7.840968 446.688942 C -10.489685 458.199083 -11.81102 466.550336 -15.279147 618.010218 " transform="matrix(1.291899,0,0,1.312022,800.568252,-395.280156)"/>
<path id="extP_toExtExt" style="fill:none;stroke-width:0.75;stroke-linecap:round;stroke-linejoin:round;stroke:rgb(0%,0%,0%);stroke-opacity:1;stroke-miterlimit:3;" d="M -6.330898 419.069466 C -15.719331 473.75008 -12.550546 563.839413 -11.579954 591.450652 C -10.691001 616.578844 -11.631356 590.000719 -11.670664 629.270963 " transform="matrix(1.291899,0,0,1.312022,93.671068,-276.269912)"/>
<!-- <path style="fill:none;stroke-width:0.75;stroke-linecap:round;stroke-linejoin:round;stroke:rgb(0%,0%,0%);stroke-opacity:1;stroke-miterlimit:3;" d="M 1.300169 428.071319 L 16.699618 428.071319 " transform="matrix(1.291899,0,0,1.312022,0.00000000000004833,-322.088357)"/> -->
</g>
</svg>
