<?xml version="1.0" encoding="UTF-8"?>
<svg xmlns="http://www.w3.org/2000/svg" xmlns:xlink="http://www.w3.org/1999/xlink" width="739pt" height="549pt" viewBox="0 0 739 549" version="1.1">
<g id="surface1">
<path id="entP_toFirstBarrier"  style="fill:none;stroke-width:0.75;stroke-linecap:round;stroke-linejoin:round;stroke:rgb(0%,0%,0%);stroke-opacity:1;stroke-miterlimit:3;" d="M -9.000792 411.839004 L -9.000792 326.791304 " transform="matrix(1.331052,0,0,1.332524,675.285209,-0.269844)"/>
<path id="entP_toSecondBarrier"  style="fill:none;stroke-width:0.75;stroke-linecap:round;stroke-linejoin:round;stroke:rgb(0%,0%,0%);stroke-opacity:1;stroke-miterlimit:3;" d="M -9.000792 411.840786 L -9.000792 326.790154 " transform="matrix(1.331052,0,0,1.332524,675.285209,-111.901124)"/>
<path id="entP_toEntExt" style="fill:none;stroke-width:0.75;stroke-linecap:round;stroke-linejoin:round;stroke:rgb(0%,0%,0%);stroke-opacity:1;stroke-miterlimit:3;" d="M -0.000792287 411.841298 C -0.000792287 383.491087 6.570021 366.881399 16.97063 359.458926 C 26.599411 352.569981 39.509196 353.569611 57.510701 352.710691 " transform="matrix(1.331052,0,0,1.332524,663.305742,-113.601025)"/>
<path id="entP_toA1" style="fill:none;stroke-width:0.75;stroke-linecap:round;stroke-linejoin:round;stroke:rgb(0%,0%,0%);stroke-opacity:1;stroke-miterlimit:3;" d="M -0.000792287 411.839542 C -0.000792287 373.65133 -0.919356 361.948917 2.628707 353.060711 C 5.099732 346.88118 9.718964 342.058918 37.669133 342.460529 " transform="matrix(1.331052,0,0,1.332524,663.305742,-223.532279)"/>
<path id="entP_toA2" style="fill:none;stroke-width:0.75;stroke-linecap:round;stroke-linejoin:round;stroke:rgb(0%,0%,0%);stroke-opacity:1;stroke-miterlimit:3;" d="M -0.000792287 411.839542 C -0.000792287 339.628732 -3.569399 327.38986 2.390996 315.869198 C 5.079189 310.668777 9.718964 305.609066 38.071188 310.059032 " transform="matrix(1.331052,0,0,1.332524,663.305742,-223.532279)"/>
<path id="entP_toA3" style="fill:none;stroke-width:0.75;stroke-linecap:round;stroke-linejoin:round;stroke:rgb(0%,0%,0%);stroke-opacity:1;stroke-miterlimit:3;" d="M -0.000792287 411.839542 C -1.359563 305.409726 -6.87975 289.280798 6.138619 279.269841 C 10.52014 275.88986 17.008781 273.2105 36.049174 276.851381 " transform="matrix(1.331052,0,0,1.332524,663.305742,-223.532279)"/>
<path id="entP_toA4" style="fill:none;stroke-width:0.75;stroke-linecap:round;stroke-linejoin:round;stroke:rgb(0%,0%,0%);stroke-opacity:1;stroke-miterlimit:3;" d="M -0.000792287 411.839542 C -1.940635 273.28965 -7.719077 256.380952 6.889905 246.179449 C 10.889913 243.379899 16.439448 241.090424 35.471036 244.740099 " transform="matrix(1.331052,0,0,1.332524,663.305742,-223.532279)"/>
<path id="entP_toA5" style="fill:none;stroke-width:0.75;stroke-linecap:round;stroke-linejoin:round;stroke:rgb(0%,0%,0%);stroke-opacity:1;stroke-miterlimit:3;" d="M -0.000792287 411.839542 C -3.639832 230.680787 -7.349304 217.11103 7.969878 208.149537 C 11.400552 206.138551 15.799681 204.359151 36.451229 206.789337 " transform="matrix(1.331052,0,0,1.332524,663.305742,-223.532279)"/>
<path id="entP_toB1" style="fill:none;stroke-width:0.75;stroke-linecap:round;stroke-linejoin:round;stroke:rgb(0%,0%,0%);stroke-opacity:1;stroke-miterlimit:3;" d="M -0.000792287 411.839542 C -2.319212 309.249947 -23.569441 316.769158 -42.069847 317.120934 C -55.810155 317.390629 -68.039087 313.708707 -68.039087 368.790959 " transform="matrix(1.331052,0,0,1.332524,663.305742,-223.532279)"/>
<path id="entP_toB2" style="fill:none;stroke-width:0.75;stroke-linecap:round;stroke-linejoin:round;stroke:rgb(0%,0%,0%);stroke-opacity:1;stroke-miterlimit:3;" d="M -0.000792287 411.839542 C 0.809187 307.230167 -30.700784 315.470518 -60.059613 316.619653 C -84.221073 317.560654 -106.921048 313.708707 -102.061169 367.858753 " transform="matrix(1.331052,0,0,1.332524,663.305742,-223.532279)"/>
<path id="entP_toB3" style="fill:none;stroke-width:0.75;stroke-linecap:round;stroke-linejoin:round;stroke:rgb(0%,0%,0%);stroke-opacity:1;stroke-miterlimit:3;" d="M -0.000792287 411.839542 C 7.559018 310.481163 -32.570194 316.370479 -72.420608 316.909868 C -107.598965 317.390629 -142.560155 313.708707 -134.460358 366.929478 " transform="matrix(1.331052,0,0,1.332524,663.305742,-223.532279)"/>
<path id="entP_toB4" style="fill:none;stroke-width:0.75;stroke-linecap:round;stroke-linejoin:round;stroke:rgb(0%,0%,0%);stroke-opacity:1;stroke-miterlimit:3;" d="M -0.000792287 411.839542 C 12.958883 300.748695 -40.32076 315.731419 -87.390559 317.079893 C -132.391388 318.381464 -171.719424 307.230167 -166.859546 368.790959 " transform="matrix(1.331052,0,0,1.332524,663.305742,-223.532279)"/>
<path id="entP_toB5" style="fill:none;stroke-width:0.75;stroke-linecap:round;stroke-linejoin:round;stroke:rgb(0%,0%,0%);stroke-opacity:1;stroke-miterlimit:3;" d="M -0.000792287 411.839542 C 12.958883 294.270154 -58.169661 317.710159 -114.430968 317.030059 C -167.511051 316.379273 -207.361465 294.270154 -199.258734 368.790959 " transform="matrix(1.331052,0,0,1.332524,663.305742,-223.532279)"/>
<path id="entP_toB6" style="fill:none;stroke-width:0.75;stroke-linecap:round;stroke-linejoin:round;stroke:rgb(0%,0%,0%);stroke-opacity:1;stroke-miterlimit:3;" d="M -0.000792287 411.839542 C 6.479045 287.788682 -59.968637 316.320644 -123.000319 317.059373 C -182.921208 317.751199 -239.760654 293.340879 -234.489916 368.790959 " transform="matrix(1.331052,0,0,1.332524,663.305742,-223.532279)"/>
<path id="entP_toB7" style="fill:none;stroke-width:0.75;stroke-linecap:round;stroke-linejoin:round;stroke:rgb(0%,0%,0%);stroke-opacity:1;stroke-miterlimit:3;" d="M -0.000792287 411.839542 C 12.958883 287.788682 -56.000911 318.041414 -134.190364 317.009538 C -207.241142 316.050949 -288.359436 287.788682 -268.919923 368.790959 " transform="matrix(1.331052,0,0,1.332524,663.305742,-223.532279)"/>
<path id="entP_toB8" style="fill:none;stroke-width:0.75;stroke-linecap:round;stroke-linejoin:round;stroke:rgb(0%,0%,0%);stroke-opacity:1;stroke-miterlimit:3;" d="M -0.000792287 411.839542 C 12.958883 287.788682 -59.299524 316.358753 -146.43984 315.279973 C -228.599955 314.251028 -323.998543 286.859407 -304.55903 367.858753 " transform="matrix(1.331052,0,0,1.332524,663.305742,-223.532279)"/>
<path id="entP_toB9" style="fill:none;stroke-width:0.75;stroke-linecap:round;stroke-linejoin:round;stroke:rgb(0%,0%,0%);stroke-opacity:1;stroke-miterlimit:3;" d="M -0.000792287 411.839542 C 12.958883 287.788682 -62.248906 317.499093 -157.509563 316.229768 C -247.919145 315.030798 -356.400665 285.930133 -336.961153 366.929478 " transform="matrix(1.331052,0,0,1.332524,663.305742,-223.532279)"/>
<path id="entP_toB10" style="fill:none;stroke-width:0.75;stroke-linecap:round;stroke-linejoin:round;stroke:rgb(0%,0%,0%);stroke-opacity:1;stroke-miterlimit:3;" d="M -0.000792287 411.839542 C 12.958883 287.788682 -66.609884 315.649338 -168.570481 313.430218 C -266.689544 311.299042 -385.559935 281.310142 -370.9803 365.548757 " transform="matrix(1.331052,0,0,1.332524,663.305742,-223.532279)"/>
<path id="entP_toB11" style="fill:none;stroke-width:0.75;stroke-linecap:round;stroke-linejoin:round;stroke:rgb(0%,0%,0%);stroke-opacity:1;stroke-miterlimit:3;" d="M -0.000792287 411.839542 C 19.438721 287.788682 -77.301029 312.999292 -189.040077 311.020553 C -297.991151 309.088716 -421.199042 281.310142 -403.379488 365.548757 " transform="matrix(1.331052,0,0,1.332524,663.305742,-223.532279)"/>
<path id="entP_toC1" style="fill:none;stroke-width:0.75;stroke-linecap:round;stroke-linejoin:round;stroke:rgb(0%,0%,0%);stroke-opacity:1;stroke-miterlimit:3;" d="M -0.000792287 411.839542 C 3.239127 320.190179 -19.598779 318.920854 -40.810857 315.781254 C -55.631137 313.579723 -69.659047 310.469437 -64.998729 267.939724 " transform="matrix(1.331052,0,0,1.332524,663.305742,-223.532279)"/>
<path id="entP_toC2" style="fill:none;stroke-width:0.75;stroke-linecap:round;stroke-linejoin:round;stroke:rgb(0%,0%,0%);stroke-opacity:1;stroke-miterlimit:3;" d="M -0.000792287 411.839542 C 6.479045 326.66872 -23.719111 313.480053 -50.41029 314.268617 C -75.299558 314.998552 -97.139662 327.891141 -97.908556 267.939724 " transform="matrix(1.331052,0,0,1.332524,663.305742,-223.532279)"/>
<path id="entP_toC3" style="fill:none;stroke-width:0.75;stroke-linecap:round;stroke-linejoin:round;stroke:rgb(0%,0%,0%);stroke-opacity:1;stroke-miterlimit:3;" d="M -0.000792287 411.839542 C 9.718964 323.429449 -32.059554 313.140003 -67.190956 314.160153 C -101.55053 315.150989 -129.53885 326.958935 -131.220439 267.939724 " transform="matrix(1.331052,0,0,1.332524,663.305742,-223.532279)"/>
<path id="entP_toC4" style="fill:none;stroke-width:0.75;stroke-linecap:round;stroke-linejoin:round;stroke:rgb(0%,0%,0%);stroke-opacity:1;stroke-miterlimit:3;" d="M -0.000792287 411.839542 C 8.659534 309.988676 -45.978879 312.999292 -91.31133 316.470148 C -134.040694 319.738733 -168.479505 323.429449 -165.700336 267.939724 " transform="matrix(1.331052,0,0,1.332524,663.305742,-223.532279)"/>
<path id="entP_toC5" style="fill:none;stroke-width:0.75;stroke-linecap:round;stroke-linejoin:round;stroke:rgb(0%,0%,0%);stroke-opacity:1;stroke-miterlimit:3;" d="M -0.000792287 411.839542 C 10.840023 309.279262 -46.468976 313.770268 -101.488901 317.370109 C -153.841176 320.799924 -204.118612 323.429449 -196.828795 268.350129 " transform="matrix(1.331052,0,0,1.332524,663.305742,-223.532279)"/>
<path id="entP_toC6" style="fill:none;stroke-width:0.75;stroke-linecap:round;stroke-linejoin:round;stroke:rgb(0%,0%,0%);stroke-opacity:1;stroke-miterlimit:3;" d="M -0.000792287 411.839542 C 14.578842 294.270154 -66.04055 311.600983 -130.618823 317.569448 C -192.570532 323.300465 -239.760654 318.569078 -230.850877 268.350129 " transform="matrix(1.331052,0,0,1.332524,663.305742,-223.532279)"/>
<path id="entP_toC7" style="fill:none;stroke-width:0.75;stroke-linecap:round;stroke-linejoin:round;stroke:rgb(0%,0%,0%);stroke-opacity:1;stroke-miterlimit:3;" d="M -0.000792287 411.839542 C 19.438721 294.270154 -72.558539 312.330918 -146.551359 318.780144 C -219.798763 325.17074 -275.39976 320.190179 -266.489984 265.919944 " transform="matrix(1.331052,0,0,1.332524,663.305742,-223.532279)"/>
<path id="entP_toC8" style="fill:none;stroke-width:0.75;stroke-linecap:round;stroke-linejoin:round;stroke:rgb(0%,0%,0%);stroke-opacity:1;stroke-miterlimit:3;" d="M -0.000792287 411.839542 C 12.958883 294.270154 -58.970836 310.950197 -140.849219 319.049839 C -221.160468 326.991181 -311.038867 326.66872 -302.129091 266.318623 " transform="matrix(1.331052,0,0,1.332524,663.305742,-223.532279)"/>
<path id="entP_toC9" style="fill:none;stroke-width:0.75;stroke-linecap:round;stroke-linejoin:round;stroke:rgb(0%,0%,0%);stroke-opacity:1;stroke-miterlimit:3;" d="M -0.000792287 411.839542 C 12.958883 287.788682 -79.249676 304.899651 -171.461169 316.329438 C -260.690999 327.398655 -349.920828 333.150192 -333.310374 264.339883 " transform="matrix(1.331052,0,0,1.332524,663.305742,-223.532279)"/>
<path id="entP_toC10" style="fill:none;stroke-width:0.75;stroke-linecap:round;stroke-linejoin:round;stroke:rgb(0%,0%,0%);stroke-opacity:1;stroke-miterlimit:3;" d="M -0.000792287 411.839542 C 19.438721 294.270154 -90.348746 308.279632 -188.878668 317.979854 C -288.0689 327.738705 -375.840178 333.150192 -366.120422 266.421224 " transform="matrix(1.331052,0,0,1.332524,663.305742,-223.532279)"/>
<path id="entP_toC11" style="fill:none;stroke-width:0.75;stroke-linecap:round;stroke-linejoin:round;stroke:rgb(0%,0%,0%);stroke-opacity:1;stroke-miterlimit:3;" d="M -0.000792287 411.839542 C 12.958883 294.270154 -85.230613 303.530656 -195.681323 315.089428 C -302.680816 326.278835 -421.199042 339.628732 -400.139569 266.729028 " transform="matrix(1.331052,0,0,1.332524,663.305742,-223.532279)"/>
<path id="entP_toD1" style="fill:none;stroke-width:0.75;stroke-linecap:round;stroke-linejoin:round;stroke:rgb(0%,0%,0%);stroke-opacity:1;stroke-miterlimit:3;" d="M -0.000792287 411.839542 C 9.718964 221.37045 -19.020642 222.98862 -42.501249 218.35104 C -52.508607 216.381094 -61.55925 213.270809 -61.55925 168.721315 " transform="matrix(1.331052,0,0,1.332524,663.305742,-223.532279)"/>
<path id="entP_toD2" style="fill:none;stroke-width:0.75;stroke-linecap:round;stroke-linejoin:round;stroke:rgb(0%,0%,0%);stroke-opacity:1;stroke-miterlimit:3;" d="M -0.000792287 411.839542 C 3.239127 200.310796 -17.151232 220.59068 -57.67076 220.798814 C -76.810933 220.88969 -100.44121 216.510079 -95.581332 168.721315 " transform="matrix(1.331052,0,0,1.332524,663.305742,-223.532279)"/>
<path id="entP_toD3" style="fill:none;stroke-width:0.75;stroke-linecap:round;stroke-linejoin:round;stroke:rgb(0%,0%,0%);stroke-opacity:1;stroke-miterlimit:3;" d="M -0.000792287 411.839542 C 6.479045 203.550066 -17.820346 217.67094 -68.81972 221.73102 C -99.299608 224.14948 -139.320236 222.98862 -129.600479 169.5304 " transform="matrix(1.331052,0,0,1.332524,663.305742,-223.532279)"/>
<path id="entP_toD4" style="fill:none;stroke-width:0.75;stroke-linecap:round;stroke-linejoin:round;stroke:rgb(0%,0%,0%);stroke-opacity:1;stroke-miterlimit:3;" d="M -0.000792287 411.839542 C 6.479045 203.550066 -14.568688 215.108838 -72.910704 222.059345 C -113.359799 226.869881 -171.719424 229.470092 -163.619627 168.601125 " transform="matrix(1.331052,0,0,1.332524,663.305742,-223.532279)"/>
<path id="entP_toD5" style="fill:none;stroke-width:0.75;stroke-linecap:round;stroke-linejoin:round;stroke:rgb(0%,0%,0%);stroke-opacity:1;stroke-miterlimit:3;" d="M -0.000792287 411.839542 C 6.479045 190.590054 -20.960484 215.481134 -86.240153 224.298985 C -134.739155 230.850812 -204.118612 228.540817 -196.018815 167.668919 " transform="matrix(1.331052,0,0,1.332524,663.305742,-223.532279)"/>
<path id="entP_toD6" style="fill:none;stroke-width:0.75;stroke-linecap:round;stroke-linejoin:round;stroke:rgb(0%,0%,0%);stroke-opacity:1;stroke-miterlimit:3;" d="M -0.000792287 411.839542 C 9.718964 197.068594 -19.029446 214.329068 -95.540246 224.419175 C -156.52937 232.460187 -247.860451 235.948632 -230.850877 168.721315 " transform="matrix(1.331052,0,0,1.332524,663.305742,-223.532279)"/>
<path id="entP_toD7" style="fill:none;stroke-width:0.75;stroke-linecap:round;stroke-linejoin:round;stroke:rgb(0%,0%,0%);stroke-opacity:1;stroke-miterlimit:3;" d="M -0.000792287 411.839542 C 12.958883 197.068594 -20.848965 217.248809 -103.27027 225.078755 C -173.36873 231.739046 -278.639679 229.470092 -268.919923 169.5304 " transform="matrix(1.331052,0,0,1.332524,663.305742,-223.532279)"/>
<path id="entP_toD8" style="fill:none;stroke-width:0.75;stroke-linecap:round;stroke-linejoin:round;stroke:rgb(0%,0%,0%);stroke-opacity:1;stroke-miterlimit:3;" d="M -0.000792287 411.839542 C 19.438721 184.108582 -33.230503 218.749719 -128.159537 227.420997 C -210.269762 234.919687 -323.998543 222.98862 -304.55903 168.721315 " transform="matrix(1.331052,0,0,1.332524,663.305742,-223.532279)"/>
<path id="entP_toD9" style="fill:none;stroke-width:0.75;stroke-linecap:round;stroke-linejoin:round;stroke:rgb(0%,0%,0%);stroke-opacity:1;stroke-miterlimit:3;" d="M -0.000792287 411.839542 C 6.479045 190.590054 -3.079302 214.329068 -106.210848 225.650391 C -195.910231 235.500118 -356.400665 235.948632 -338.581112 169.5304 " transform="matrix(1.331052,0,0,1.332524,663.305742,-223.532279)"/>
<path id="entP_toD10" style="fill:none;stroke-width:0.75;stroke-linecap:round;stroke-linejoin:round;stroke:rgb(0%,0%,0%);stroke-opacity:1;stroke-miterlimit:3;" d="M -0.000792287 411.839542 C 12.958883 197.068594 -20.350065 214.598763 -135.980537 224.480736 C -237.280824 233.149082 -401.759529 235.948632 -370.17032 167.909299 " transform="matrix(1.331052,0,0,1.332524,663.305742,-223.532279)"/>
<path id="entP_toD11" style="fill:none;stroke-width:0.75;stroke-linecap:round;stroke-linejoin:round;stroke:rgb(0%,0%,0%);stroke-opacity:1;stroke-miterlimit:3;" d="M -0.000792287 411.839542 C 12.958883 184.108582 -28.250302 207.979512 -147.540356 222.859635 C -255.578735 236.329723 -427.678879 242.430104 -403.379488 167.909299 " transform="matrix(1.331052,0,0,1.332524,663.305742,-223.532279)"/>
<path id="entP_toE1" style="fill:none;stroke-width:0.75;stroke-linecap:round;stroke-linejoin:round;stroke:rgb(0%,0%,0%);stroke-opacity:1;stroke-miterlimit:3;" d="M -0.000792287 411.839542 C 19.438721 287.788682 -119.10009 309.399452 -223.390846 318.319904 C -348.658903 329.040276 -424.509393 321.45071 -498.960028 342.870934 " transform="matrix(1.331052,0,0,1.332524,663.305742,-223.532279)"/>
<path id="entP_toE2" style="fill:none;stroke-width:0.75;stroke-linecap:round;stroke-linejoin:round;stroke:rgb(0%,0%,0%);stroke-opacity:1;stroke-miterlimit:3;" d="M -0.000792287 411.839542 C 21.079223 275.11009 -107.141151 307.898541 -207.029843 317.100414 C -329.909047 328.430531 -409.909216 304.049526 -499.159588 310.469437 " transform="matrix(1.331052,0,0,1.332524,663.305742,-223.532279)"/>
<path id="entP_toE3" style="fill:none;stroke-width:0.75;stroke-linecap:round;stroke-linejoin:round;stroke:rgb(0%,0%,0%);stroke-opacity:1;stroke-miterlimit:3;" d="M -0.000792287 411.839542 C 19.438721 261.868657 -198.061372 314.910608 -311.329404 321.198604 C -440.359757 328.351381 -434.158717 274.82867 -498.960028 276.20939 " transform="matrix(1.331052,0,0,1.332524,663.305742,-223.532279)"/>
<path id="entP_toE4" style="fill:none;stroke-width:0.75;stroke-linecap:round;stroke-linejoin:round;stroke:rgb(0%,0%,0%);stroke-opacity:1;stroke-miterlimit:3;" d="M -0.000792287 411.839542 C 25.918558 171.148569 -59.49028 210.861143 -151.009182 223.261246 C -263.038766 238.428653 -384.209969 212.669858 -498.960028 242.869824 " transform="matrix(1.331052,0,0,1.332524,663.305742,-223.532279)"/>
<path id="entP_toE5" style="fill:none;stroke-width:0.75;stroke-linecap:round;stroke-linejoin:round;stroke:rgb(0%,0%,0%);stroke-opacity:1;stroke-miterlimit:3;" d="M -0.000792287 411.839542 C 32.401331 171.148569 -57.389028 217.190179 -167.141278 226.591392 C -288.459216 236.989303 -434.158717 202.620792 -498.960028 209.539052 " transform="matrix(1.331052,0,0,1.332524,663.305742,-223.532279)"/>
</g>
</svg>
