<?xml version="1.0" encoding="UTF-8"?>
<svg xmlns="http://www.w3.org/2000/svg" xmlns:xlink="http://www.w3.org/1999/xlink" width="740pt" height="550pt" viewBox="0 0 740 550" version="1.1">
<g id="surface1">
<path id="entP_toFirstBarrier" style="fill:none;stroke-width:0.75;stroke-linecap:round;stroke-linejoin:round;stroke:rgb(0%,0%,0%);stroke-opacity:1;stroke-miterlimit:3;" d="M -9.001033 442.820338 L -9.001033 357.76873 " transform="matrix(1.255088,0,0,1.240974,675.06662,-4.485769)"/>
<path id="entP_toSecondBarrier" style="fill:none;stroke-width:0.75;stroke-linecap:round;stroke-linejoin:round;stroke:rgb(0%,0%,0%);stroke-opacity:1;stroke-miterlimit:3;" d="M -9.001033 442.821008 L -9.001033 357.7694 " transform="matrix(1.255088,0,0,1.240974,675.06662,-108.447537)"/>
<path id="entP_toEntExt" style="fill:none;stroke-width:0.75;stroke-linecap:round;stroke-linejoin:round;stroke:rgb(0%,0%,0%);stroke-opacity:1;stroke-miterlimit:3;" d="M -0.00103348 442.81873 C -0.00103348 414.470293 6.569099 397.869176 16.970511 390.440538 C 26.600066 383.559604 39.510018 384.551139 57.508632 383.688661 " transform="matrix(1.255088,0,0,1.240974,663.770828,-110.030648)"/>
<path id="entP_toA1" style="fill:none;stroke-width:0.75;stroke-linecap:round;stroke-linejoin:round;stroke:rgb(0%,0%,0%);stroke-opacity:1;stroke-miterlimit:3;" d="M -0.00103348 442.818929 C -0.00103348 404.630694 -0.919171 392.940033 2.628887 384.041406 C 5.100078 377.868712 9.718778 373.040097 37.67063 373.449302 " transform="matrix(1.255088,0,0,1.240974,663.770828,-212.409802)"/>
<path id="entP_toA2" style="fill:none;stroke-width:0.75;stroke-linecap:round;stroke-linejoin:round;stroke:rgb(0%,0%,0%);stroke-opacity:1;stroke-miterlimit:3;" d="M -0.00103348 442.818929 C -0.00103348 370.610051 -3.570878 358.368537 2.389237 346.860444 C 5.081404 341.650954 9.718778 336.589408 38.069008 341.049738 " transform="matrix(1.255088,0,0,1.240974,663.770828,-212.409802)"/>
<path id="entP_toA3" style="fill:none;stroke-width:0.75;stroke-linecap:round;stroke-linejoin:round;stroke:rgb(0%,0%,0%);stroke-opacity:1;stroke-miterlimit:3;" d="M -0.00103348 442.818929 C -1.361122 336.391101 -6.879287 320.268438 6.139597 310.249221 C 10.518648 306.881152 17.010972 304.189844 36.049105 307.841209 " transform="matrix(1.255088,0,0,1.240974,663.770828,-212.409802)"/>
<path id="entP_toA4" style="fill:none;stroke-width:0.75;stroke-linecap:round;stroke-linejoin:round;stroke:rgb(0%,0%,0%);stroke-opacity:1;stroke-miterlimit:3;" d="M -0.00103348 442.818929 C -1.940016 304.268537 -7.719616 287.358943 6.889669 277.160305 C 10.889015 274.371418 16.441415 272.079872 35.470211 275.718645 " transform="matrix(1.255088,0,0,1.240974,663.770828,-212.409802)"/>
<path id="entP_toA5" style="fill:none;stroke-width:0.75;stroke-linecap:round;stroke-linejoin:round;stroke:rgb(0%,0%,0%);stroke-opacity:1;stroke-miterlimit:3;" d="M -0.00103348 442.818929 C -3.639349 261.670336 -7.349249 248.100481 7.969648 239.129456 C 11.399438 237.121206 15.800275 235.339592 36.450596 237.769638 " transform="matrix(1.255088,0,0,1.240974,663.770828,-212.409802)"/>
<path id="entP_toB1" style="fill:none;stroke-width:0.75;stroke-linecap:round;stroke-linejoin:round;stroke:rgb(0%,0%,0%);stroke-opacity:1;stroke-miterlimit:3;" d="M -0.00103348 442.818929 C -2.319721 340.231329 -23.570722 347.751251 -42.070421 348.110092 C -55.811366 348.371353 -68.039717 344.688512 -68.039717 399.770602 " transform="matrix(1.255088,0,0,1.240974,663.770828,-212.409802)"/>
<path id="entP_toB2" style="fill:none;stroke-width:0.75;stroke-linecap:round;stroke-linejoin:round;stroke:rgb(0%,0%,0%);stroke-opacity:1;stroke-miterlimit:3;" d="M -0.00103348 442.818929 C 0.811285 338.210488 -30.701074 346.451239 -60.059699 347.60016 C -84.22073 348.550774 -106.918965 344.688512 -102.060615 398.838875 " transform="matrix(1.255088,0,0,1.240974,663.770828,-212.409802)"/>
<path id="entP_toB3" style="fill:none;stroke-width:0.75;stroke-linecap:round;stroke-linejoin:round;stroke:rgb(0%,0%,0%);stroke-opacity:1;stroke-miterlimit:3;" d="M -0.00103348 442.818929 C 7.55882 341.471534 -32.568473 347.351489 -72.418768 347.899194 C -107.600566 348.380796 -142.561388 344.688512 -134.459988 397.910295 " transform="matrix(1.255088,0,0,1.240974,663.770828,-212.409802)"/>
<path id="entP_toB4" style="fill:none;stroke-width:0.75;stroke-linecap:round;stroke-linejoin:round;stroke:rgb(0%,0%,0%);stroke-opacity:1;stroke-miterlimit:3;" d="M -0.00103348 442.818929 C 12.958716 331.729316 -40.321291 346.709353 -87.389083 348.069171 C -132.390288 349.369183 -171.720823 338.210488 -166.859361 399.770602 " transform="matrix(1.255088,0,0,1.240974,663.770828,-212.409802)"/>
<path id="entP_toB5" style="fill:none;stroke-width:0.75;stroke-linecap:round;stroke-linejoin:round;stroke:rgb(0%,0%,0%);stroke-opacity:1;stroke-miterlimit:3;" d="M -0.00103348 442.818929 C 12.958716 325.251292 -58.170513 348.689274 -114.429021 348.009365 C -167.509839 347.370376 -207.360134 325.251292 -199.258734 399.770602 " transform="matrix(1.255088,0,0,1.240974,663.770828,-212.409802)"/>
<path id="entP_toB6" style="fill:none;stroke-width:0.75;stroke-linecap:round;stroke-linejoin:round;stroke:rgb(0%,0%,0%);stroke-opacity:1;stroke-miterlimit:3;" d="M -0.00103348 442.818929 C 6.478841 318.77012 -59.969441 347.310569 -123.000383 348.040842 C -182.918993 348.739637 -239.759507 324.319564 -234.490329 399.770602 " transform="matrix(1.255088,0,0,1.240974,663.770828,-212.409802)"/>
<path id="entP_toB7" style="fill:none;stroke-width:0.75;stroke-linecap:round;stroke-linejoin:round;stroke:rgb(0%,0%,0%);stroke-opacity:1;stroke-miterlimit:3;" d="M -0.00103348 442.818929 C 12.958716 318.77012 -56.001218 349.019785 -134.189215 347.999921 C -207.238753 347.039864 -288.358567 318.77012 -268.918943 399.770602 " transform="matrix(1.255088,0,0,1.240974,663.770828,-212.409802)"/>
<path id="entP_toB8" style="fill:none;stroke-width:0.75;stroke-linecap:round;stroke-linejoin:round;stroke:rgb(0%,0%,0%);stroke-opacity:1;stroke-miterlimit:3;" d="M -0.00103348 442.818929 C 12.958716 318.77012 -59.30029 347.351489 -146.439353 346.259228 C -228.598686 345.239364 -324.00099 317.84154 -304.561366 398.838875 " transform="matrix(1.255088,0,0,1.240974,663.770828,-212.409802)"/>
<path id="entP_toB9" style="fill:none;stroke-width:0.75;stroke-linecap:round;stroke-linejoin:round;stroke:rgb(0%,0%,0%);stroke-opacity:1;stroke-miterlimit:3;" d="M -0.00103348 442.818929 C 12.958716 318.77012 -62.25078 348.481524 -157.509917 347.219285 C -247.920041 346.020001 -356.400363 316.909813 -336.960739 397.910295 " transform="matrix(1.255088,0,0,1.240974,663.770828,-212.409802)"/>
<path id="entP_toB10" style="fill:none;stroke-width:0.75;stroke-linecap:round;stroke-linejoin:round;stroke:rgb(0%,0%,0%);stroke-opacity:1;stroke-miterlimit:3;" d="M -0.00103348 442.818929 C 12.958716 318.77012 -66.611157 346.63066 -168.571144 344.420955 C -266.690513 342.2805 -385.559799 312.288948 -370.978524 396.528443 " transform="matrix(1.255088,0,0,1.240974,663.770828,-212.409802)"/>
<path id="entP_toB11" style="fill:none;stroke-width:0.75;stroke-linecap:round;stroke-linejoin:round;stroke:rgb(0%,0%,0%);stroke-opacity:1;stroke-miterlimit:3;" d="M -0.00103348 442.818929 C 19.43859 318.77012 -77.298904 343.989716 -189.040949 342.009795 C -297.991233 340.070795 -421.199109 312.288948 -403.38101 396.528443 " transform="matrix(1.255088,0,0,1.240974,663.770828,-212.409802)"/>
<path id="entP_toC1" style="fill:none;stroke-width:0.75;stroke-linecap:round;stroke-linejoin:round;stroke:rgb(0%,0%,0%);stroke-opacity:1;stroke-miterlimit:3;" d="M -0.00103348 442.818929 C 3.238904 351.169683 -19.599386 349.901149 -40.809927 346.759717 C -55.630851 344.568898 -69.661242 341.4495 -64.998969 298.929991 " transform="matrix(1.255088,0,0,1.240974,663.770828,-212.409802)"/>
<path id="entP_toC2" style="fill:none;stroke-width:0.75;stroke-linecap:round;stroke-linejoin:round;stroke:rgb(0%,0%,0%);stroke-opacity:1;stroke-miterlimit:3;" d="M -0.00103348 442.818929 C 6.478841 357.650855 -23.720113 344.471318 -50.41147 345.248807 C -75.300787 345.97908 -97.140019 358.869026 -97.908765 298.929991 " transform="matrix(1.255088,0,0,1.240974,663.770828,-212.409802)"/>
<path id="entP_toC3" style="fill:none;stroke-width:0.75;stroke-linecap:round;stroke-linejoin:round;stroke:rgb(0%,0%,0%);stroke-opacity:1;stroke-miterlimit:3;" d="M -0.00103348 442.818929 C 9.718778 354.408695 -32.061162 344.131364 -67.190051 345.138637 C -101.550193 346.139614 -129.539392 357.940446 -131.220051 298.929991 " transform="matrix(1.255088,0,0,1.240974,663.770828,-212.409802)"/>
<path id="entP_toC4" style="fill:none;stroke-width:0.75;stroke-linecap:round;stroke-linejoin:round;stroke:rgb(0%,0%,0%);stroke-opacity:1;stroke-miterlimit:3;" d="M -0.00103348 442.818929 C 8.660586 340.971045 -45.97951 343.980273 -91.310621 347.449069 C -134.039823 350.729001 -168.480886 354.408695 -165.698462 298.929991 " transform="matrix(1.255088,0,0,1.240974,663.770828,-212.409802)"/>
<path id="entP_toC5" style="fill:none;stroke-width:0.75;stroke-linecap:round;stroke-linejoin:round;stroke:rgb(0%,0%,0%);stroke-opacity:1;stroke-miterlimit:3;" d="M -0.00103348 442.818929 C 10.839218 340.269102 -46.471258 344.751466 -101.491058 348.358762 C -153.840478 351.780343 -204.120197 354.408695 -196.831116 299.329752 " transform="matrix(1.255088,0,0,1.240974,663.770828,-212.409802)"/>
<path id="entP_toC6" style="fill:none;stroke-width:0.75;stroke-linecap:round;stroke-linejoin:round;stroke:rgb(0%,0%,0%);stroke-opacity:1;stroke-miterlimit:3;" d="M -0.00103348 442.818929 C 14.580241 325.251292 -66.038488 342.579534 -130.619371 348.550774 C -192.570334 354.279639 -239.759507 349.548604 -230.848901 299.329752 " transform="matrix(1.255088,0,0,1.240974,663.770828,-212.409802)"/>
<path id="entP_toC7" style="fill:none;stroke-width:0.75;stroke-linecap:round;stroke-linejoin:round;stroke:rgb(0%,0%,0%);stroke-opacity:1;stroke-miterlimit:3;" d="M -0.00103348 442.818929 C 19.43859 325.251292 -72.558823 343.309807 -146.551397 349.759501 C -219.800124 356.149389 -275.398818 351.169683 -266.491324 296.899706 " transform="matrix(1.255088,0,0,1.240974,663.770828,-212.409802)"/>
<path id="entP_toC8" style="fill:none;stroke-width:0.75;stroke-linecap:round;stroke-linejoin:round;stroke:rgb(0%,0%,0%);stroke-opacity:1;stroke-miterlimit:3;" d="M -0.00103348 442.818929 C 12.958716 325.251292 -58.970382 341.940545 -140.849605 350.030206 C -221.160213 357.968776 -311.04124 357.650855 -302.130635 297.308911 " transform="matrix(1.255088,0,0,1.240974,663.770828,-212.409802)"/>
<path id="entP_toC9" style="fill:none;stroke-width:0.75;stroke-linecap:round;stroke-linejoin:round;stroke:rgb(0%,0%,0%);stroke-opacity:1;stroke-miterlimit:3;" d="M -0.00103348 442.818929 C 12.958716 318.77012 -79.250336 335.881169 -171.459388 347.320012 C -260.689938 358.381128 -349.920488 364.128879 -333.309974 295.319547 " transform="matrix(1.255088,0,0,1.240974,663.770828,-212.409802)"/>
<path id="entP_toC10" style="fill:none;stroke-width:0.75;stroke-linecap:round;stroke-linejoin:round;stroke:rgb(0%,0%,0%);stroke-opacity:1;stroke-miterlimit:3;" d="M -0.00103348 442.818929 C 19.43859 325.251292 -90.348911 339.258681 -188.879108 348.959978 C -288.06912 358.730526 -375.839987 364.128879 -366.120175 297.409638 " transform="matrix(1.255088,0,0,1.240974,663.770828,-212.409802)"/>
<path id="entP_toC11" style="fill:none;stroke-width:0.75;stroke-linecap:round;stroke-linejoin:round;stroke:rgb(0%,0%,0%);stroke-opacity:1;stroke-miterlimit:3;" d="M -0.00103348 442.818929 C 12.958716 325.251292 -85.229125 334.52135 -195.679553 346.070364 C -302.681517 357.26998 -421.199109 370.610051 -400.141073 297.708673 " transform="matrix(1.255088,0,0,1.240974,663.770828,-212.409802)"/>
<path id="entP_toD1" style="fill:none;stroke-width:0.75;stroke-linecap:round;stroke-linejoin:round;stroke:rgb(0%,0%,0%);stroke-opacity:1;stroke-miterlimit:3;" d="M -0.00103348 442.818929 C 9.718778 252.349913 -19.020493 253.970993 -42.499923 249.340685 C -52.509182 247.360765 -61.559842 244.250809 -61.559842 199.701016 " transform="matrix(1.255088,0,0,1.240974,663.770828,-212.409802)"/>
<path id="entP_toD2" style="fill:none;stroke-width:0.75;stroke-linecap:round;stroke-linejoin:round;stroke:rgb(0%,0%,0%);stroke-opacity:1;stroke-miterlimit:3;" d="M -0.00103348 442.818929 C 3.238904 231.288466 -17.149981 251.57872 -57.669428 251.780175 C -76.810268 251.880902 -100.43909 247.489821 -95.58074 199.701016 " transform="matrix(1.255088,0,0,1.240974,663.770828,-212.409802)"/>
<path id="entP_toD3" style="fill:none;stroke-width:0.75;stroke-linecap:round;stroke-linejoin:round;stroke:rgb(0%,0%,0%);stroke-opacity:1;stroke-miterlimit:3;" d="M -0.00103348 442.818929 C 6.478841 234.530626 -17.819133 248.651333 -68.820912 252.708754 C -99.299977 255.1388 -139.32145 253.970993 -129.598526 200.509982 " transform="matrix(1.255088,0,0,1.240974,663.770828,-212.409802)"/>
<path id="entP_toD4" style="fill:none;stroke-width:0.75;stroke-linecap:round;stroke-linejoin:round;stroke:rgb(0%,0%,0%);stroke-opacity:1;stroke-miterlimit:3;" d="M -0.00103348 442.818929 C 6.478841 234.530626 -14.569858 246.098526 -72.910516 253.039266 C -113.361492 257.858437 -171.720823 260.449017 -163.619424 199.581403 " transform="matrix(1.255088,0,0,1.240974,663.770828,-212.409802)"/>
<path id="entP_toD5" style="fill:none;stroke-width:0.75;stroke-linecap:round;stroke-linejoin:round;stroke:rgb(0%,0%,0%);stroke-opacity:1;stroke-miterlimit:3;" d="M -0.00103348 442.818929 C 6.478841 221.57143 -20.959475 246.460514 -86.240633 255.280448 C -134.740098 261.840313 -204.120197 259.520437 -196.018797 198.649675 " transform="matrix(1.255088,0,0,1.240974,663.770828,-212.409802)"/>
<path id="entP_toD6" style="fill:none;stroke-width:0.75;stroke-linecap:round;stroke-linejoin:round;stroke:rgb(0%,0%,0%);stroke-opacity:1;stroke-miterlimit:3;" d="M -0.00103348 442.818929 C 9.718778 228.049454 -19.02983 245.308446 -95.54028 255.400062 C -156.529532 263.439359 -247.860907 266.930189 -230.848901 199.701016 " transform="matrix(1.255088,0,0,1.240974,663.770828,-212.409802)"/>
<path id="entP_toD7" style="fill:none;stroke-width:0.75;stroke-linecap:round;stroke-linejoin:round;stroke:rgb(0%,0%,0%);stroke-opacity:1;stroke-miterlimit:3;" d="M -0.00103348 442.818929 C 12.958716 228.049454 -20.850544 248.229537 -103.271312 256.061085 C -173.370359 262.718529 -278.638755 260.449017 -268.918943 200.509982 " transform="matrix(1.255088,0,0,1.240974,663.770828,-212.409802)"/>
<path id="entP_toD8" style="fill:none;stroke-width:0.75;stroke-linecap:round;stroke-linejoin:round;stroke:rgb(0%,0%,0%);stroke-opacity:1;stroke-miterlimit:3;" d="M -0.00103348 442.818929 C 19.43859 215.090258 -33.231399 249.731004 -128.160629 258.399846 C -210.270164 265.900882 -324.00099 253.970993 -304.561366 199.701016 " transform="matrix(1.255088,0,0,1.240974,663.770828,-212.409802)"/>
<path id="entP_toD9" style="fill:none;stroke-width:0.75;stroke-linecap:round;stroke-linejoin:round;stroke:rgb(0%,0%,0%);stroke-opacity:1;stroke-miterlimit:3;" d="M -0.00103348 442.818929 C 6.478841 221.57143 -3.07913 245.308446 -106.209353 256.630823 C -195.909866 266.480064 -356.400363 266.930189 -338.579151 200.509982 " transform="matrix(1.255088,0,0,1.240974,663.770828,-212.409802)"/>
<path id="entP_toD10" style="fill:none;stroke-width:0.75;stroke-linecap:round;stroke-linejoin:round;stroke:rgb(0%,0%,0%);stroke-opacity:1;stroke-miterlimit:3;" d="M -0.00103348 442.818929 C 12.958716 228.049454 -20.349458 245.579151 -135.978806 255.469312 C -237.278979 264.128711 -401.759485 266.930189 -370.169318 198.888902 " transform="matrix(1.255088,0,0,1.240974,663.770828,-212.409802)"/>
<path id="entP_toD11" style="fill:none;stroke-width:0.75;stroke-linecap:round;stroke-linejoin:round;stroke:rgb(0%,0%,0%);stroke-opacity:1;stroke-miterlimit:3;" d="M -0.00103348 442.818929 C 12.958716 215.090258 -28.248556 238.968922 -147.541118 253.838789 C -255.579489 267.320507 -427.678984 273.411361 -403.38101 198.888902 " transform="matrix(1.255088,0,0,1.240974,663.770828,-212.409802)"/>
<path id="entP_toE1" style="fill:none;stroke-width:0.75;stroke-linecap:round;stroke-linejoin:round;stroke:rgb(0%,0%,0%);stroke-opacity:1;stroke-miterlimit:3;" d="M -0.00103348 442.818929 C 19.43859 318.77012 -119.100631 340.388715 -223.388642 349.309376 C -348.659994 360.030537 -424.51063 352.428775 -498.960717 373.849063 " transform="matrix(1.255088,0,0,1.240974,663.770828,-212.409802)"/>
<path id="entP_toE2" style="fill:none;stroke-width:0.75;stroke-linecap:round;stroke-linejoin:round;stroke:rgb(0%,0%,0%);stroke-opacity:1;stroke-miterlimit:3;" d="M -0.00103348 442.818929 C 21.078789 306.100515 -107.13994 338.890397 -207.030227 348.091205 C -329.911308 359.410435 -409.910682 335.031282 -499.159906 341.4495 " transform="matrix(1.255088,0,0,1.240974,663.770828,-212.409802)"/>
<path id="entP_toE3" style="fill:none;stroke-width:0.75;stroke-linecap:round;stroke-linejoin:round;stroke:rgb(0%,0%,0%);stroke-opacity:1;stroke-miterlimit:3;" d="M -0.00103348 442.818929 C 19.43859 292.848581 -198.060487 345.900387 -311.330687 352.180104 C -440.358623 359.341185 -434.158858 305.810924 -498.960717 307.189629 " transform="matrix(1.255088,0,0,1.240974,663.770828,-212.409802)"/>
<path id="entP_toE4" style="fill:none;stroke-width:0.75;stroke-linecap:round;stroke-linejoin:round;stroke:rgb(0%,0%,0%);stroke-opacity:1;stroke-miterlimit:3;" d="M -0.00103348 442.818929 C 25.918465 202.131062 -59.490142 241.849093 -151.011368 254.23855 C -263.039748 269.410599 -384.209047 243.649593 -498.960717 273.861486 " transform="matrix(1.255088,0,0,1.240974,663.770828,-212.409802)"/>
<path id="entP_toE5" style="fill:none;stroke-width:0.75;stroke-linecap:round;stroke-linejoin:round;stroke:rgb(0%,0%,0%);stroke-opacity:1;stroke-miterlimit:3;" d="M -0.00103348 442.818929 C 32.401452 202.131062 -57.389318 248.169731 -167.139471 257.581437 C -288.461274 267.968939 -434.158858 233.598898 -498.960717 240.530195 " transform="matrix(1.255088,0,0,1.240974,663.770828,-212.409802)"/>
<path style="fill:none;stroke-width:0.75;stroke-linecap:round;stroke-linejoin:round;stroke:rgb(0%,0%,0%);stroke-opacity:1;stroke-miterlimit:3;" d="M 0.0005739 433.871211 L -26.690783 433.779927 " transform="matrix(1.255088,0,0,1.240974,38.034436,-286.891849)"/>
<path style="fill:none;stroke-width:0.75;stroke-linecap:round;stroke-linejoin:round;stroke:rgb(0%,0%,0%);stroke-opacity:1;stroke-miterlimit:3;" d="M 8.97099 442.821187 L 9.030124 418.341307 " transform="matrix(1.255088,0,0,1.240974,146.232806,-514.666509)"/>
</g>
</svg>
