<?xml version="1.0" encoding="UTF-8"?>
<svg xmlns="http://www.w3.org/2000/svg" xmlns:xlink="http://www.w3.org/1999/xlink" width="739pt" height="549pt" viewBox="0 0 739 549" version="1.1">
<g id="surface1">
<path id="entP_toFirstBarrier" style="fill:none;stroke-width:0.75;stroke-linecap:round;stroke-linejoin:round;stroke:rgb(0%,0%,0%);stroke-opacity:1;stroke-miterlimit:3;" d="M -8.999301 411.839566 L -8.999301 326.788934 " transform="matrix(1.331052,0,0,1.332524,650.365256,-23.985437)"/>
<path id="entP_toSecondBarrier" style="fill:none;stroke-width:0.75;stroke-linecap:round;stroke-linejoin:round;stroke:rgb(0%,0%,0%);stroke-opacity:1;stroke-miterlimit:3;" d="M -8.999301 411.841054 L -8.999301 326.790422 " transform="matrix(1.331052,0,0,1.332524,650.365256,-135.616325)"/>
<path id="entP_toEntExt" style="fill:none;stroke-width:0.75;stroke-linecap:round;stroke-linejoin:round;stroke:rgb(0%,0%,0%);stroke-opacity:1;stroke-miterlimit:3;" d="M 0.000698579 411.838934 C 0.000698579 383.488724 6.568577 366.879036 16.969186 359.459495 C 26.600902 352.570549 39.510687 353.570179 57.509257 352.711259 " transform="matrix(1.331052,0,0,1.332524,638.385789,-137.316626)"/>
<path id="entP_toA1" style="fill:none;stroke-width:0.75;stroke-linecap:round;stroke-linejoin:round;stroke:rgb(0%,0%,0%);stroke-opacity:1;stroke-miterlimit:3;" d="M 0.000698579 411.84061 C 0.000698579 373.649467 -0.9208 361.949985 2.630198 353.058847 C 5.101223 346.879316 9.720455 342.059986 37.670624 342.458665 " transform="matrix(1.331052,0,0,1.332524,638.385789,-247.248546)"/>
<path id="entP_toA2"  style="fill:none;stroke-width:0.75;stroke-linecap:round;stroke-linejoin:round;stroke:rgb(0%,0%,0%);stroke-opacity:1;stroke-miterlimit:3;" d="M 0.000698579 411.84061 C 0.000698579 339.6298 -3.570842 327.390929 2.389552 315.870266 C 5.08068 310.669845 9.720455 305.610134 38.069745 310.0601 " transform="matrix(1.331052,0,0,1.332524,638.385789,-247.248546)"/>
<path id="entP_toA3" style="fill:none;stroke-width:0.75;stroke-linecap:round;stroke-linejoin:round;stroke:rgb(0%,0%,0%);stroke-opacity:1;stroke-miterlimit:3;" d="M 0.000698579 411.84061 C -1.361006 305.410794 -6.881194 289.278935 6.14011 279.270909 C 10.518696 275.890929 17.010272 273.208637 36.050665 276.849518 " transform="matrix(1.331052,0,0,1.332524,638.385789,-247.248546)"/>
<path id="entP_toA4" style="fill:none;stroke-width:0.75;stroke-linecap:round;stroke-linejoin:round;stroke:rgb(0%,0%,0%);stroke-opacity:1;stroke-miterlimit:3;" d="M 0.000698579 411.84061 C -1.939144 273.290718 -7.720521 256.379089 6.891395 246.180518 C 10.891404 243.380967 16.440939 241.088561 35.469592 244.741168 " transform="matrix(1.331052,0,0,1.332524,638.385789,-247.248546)"/>
<path id="entP_toA5" style="fill:none;stroke-width:0.75;stroke-linecap:round;stroke-linejoin:round;stroke:rgb(0%,0%,0%);stroke-opacity:1;stroke-miterlimit:3;" d="M 0.000698579 411.84061 C -3.641275 230.678924 -7.350748 217.109166 7.971368 208.150605 C 11.399109 206.139619 15.801172 204.360219 36.449785 206.790405 " transform="matrix(1.331052,0,0,1.332524,638.385789,-247.248546)"/>
<path id="entP_toB1" style="fill:none;stroke-width:0.75;stroke-linecap:round;stroke-linejoin:round;stroke:rgb(0%,0%,0%);stroke-opacity:1;stroke-miterlimit:3;" d="M 0.000698579 411.84061 C -2.320656 309.251015 -23.570885 316.770226 -42.071291 317.119071 C -55.808664 317.388765 -68.040531 313.709775 -68.040531 368.789096 " transform="matrix(1.331052,0,0,1.332524,638.385789,-247.248546)"/>
<path id="entP_toB2" style="fill:none;stroke-width:0.75;stroke-linecap:round;stroke-linejoin:round;stroke:rgb(0%,0%,0%);stroke-opacity:1;stroke-miterlimit:3;" d="M 0.000698579 411.84061 C 0.810678 307.231235 -30.699293 315.468655 -60.061057 316.620721 C -84.219582 317.558791 -106.919557 313.709775 -102.059679 367.859821 " transform="matrix(1.331052,0,0,1.332524,638.385789,-247.248546)"/>
<path id="entP_toB3" style="fill:none;stroke-width:0.75;stroke-linecap:round;stroke-linejoin:round;stroke:rgb(0%,0%,0%);stroke-opacity:1;stroke-miterlimit:3;" d="M 0.000698579 411.84061 C 7.560509 310.479299 -32.568703 316.368615 -72.419117 316.910936 C -107.600409 317.388765 -142.558664 313.709775 -134.458867 366.930546 " transform="matrix(1.331052,0,0,1.332524,638.385789,-247.248546)"/>
<path id="entP_toB4" style="fill:none;stroke-width:0.75;stroke-linecap:round;stroke-linejoin:round;stroke:rgb(0%,0%,0%);stroke-opacity:1;stroke-miterlimit:3;" d="M 0.000698579 411.84061 C 12.960374 300.749763 -40.319269 315.729556 -87.389068 317.080962 C -132.389897 318.379601 -171.720868 307.231235 -166.86099 368.789096 " transform="matrix(1.331052,0,0,1.332524,638.385789,-247.248546)"/>
<path id="entP_toB5" style="fill:none;stroke-width:0.75;stroke-linecap:round;stroke-linejoin:round;stroke:rgb(0%,0%,0%);stroke-opacity:1;stroke-miterlimit:3;" d="M 0.000698579 411.84061 C 12.960374 294.271222 -58.171105 317.711227 -114.429477 317.031127 C -167.50956 316.380341 -207.359975 294.271222 -199.260178 368.789096 " transform="matrix(1.331052,0,0,1.332524,638.385789,-247.248546)"/>
<path id="entP_toB6" style="fill:none;stroke-width:0.75;stroke-linecap:round;stroke-linejoin:round;stroke:rgb(0%,0%,0%);stroke-opacity:1;stroke-miterlimit:3;" d="M 0.000698579 411.84061 C 6.480536 287.78975 -59.970081 316.31878 -122.998828 317.060441 C -182.919718 317.749336 -239.759163 293.339016 -234.49136 368.789096 " transform="matrix(1.331052,0,0,1.332524,638.385789,-247.248546)"/>
<path id="entP_toB7" style="fill:none;stroke-width:0.75;stroke-linecap:round;stroke-linejoin:round;stroke:rgb(0%,0%,0%);stroke-opacity:1;stroke-miterlimit:3;" d="M 0.000698579 411.84061 C 12.960374 287.78975 -55.99942 318.039551 -134.188873 317.010606 C -207.239652 316.049085 -288.36088 287.78975 -268.921367 368.789096 " transform="matrix(1.331052,0,0,1.332524,638.385789,-247.248546)"/>
<path id="entP_toB8" style="fill:none;stroke-width:0.75;stroke-linecap:round;stroke-linejoin:round;stroke:rgb(0%,0%,0%);stroke-opacity:1;stroke-miterlimit:3;" d="M 0.000698579 411.84061 C 12.960374 287.78975 -59.300968 316.359821 -146.441284 315.281041 C -228.601399 314.249165 -323.999986 286.860475 -304.560474 367.859821 " transform="matrix(1.331052,0,0,1.332524,638.385789,-247.248546)"/>
<path id="entP_toB9" style="fill:none;stroke-width:0.75;stroke-linecap:round;stroke-linejoin:round;stroke:rgb(0%,0%,0%);stroke-opacity:1;stroke-miterlimit:3;" d="M 0.000698579 411.84061 C 12.960374 287.78975 -62.25035 317.500161 -157.511006 316.230836 C -247.920589 315.028935 -356.399175 285.931201 -336.959662 366.930546 " transform="matrix(1.331052,0,0,1.332524,638.385789,-247.248546)"/>
<path id="entP_toB10" style="fill:none;stroke-width:0.75;stroke-linecap:round;stroke-linejoin:round;stroke:rgb(0%,0%,0%);stroke-opacity:1;stroke-miterlimit:3;" d="M 0.000698579 411.84061 C 12.960374 287.78975 -66.611328 315.650406 -168.56899 313.431286 C -266.690988 311.30011 -385.561379 281.31121 -370.978809 365.549825 " transform="matrix(1.331052,0,0,1.332524,638.385789,-247.248546)"/>
<path id="entP_toB11" style="fill:none;stroke-width:0.75;stroke-linecap:round;stroke-linejoin:round;stroke:rgb(0%,0%,0%);stroke-opacity:1;stroke-miterlimit:3;" d="M 0.000698579 411.84061 C 19.440211 287.78975 -77.299538 313.00036 -189.038586 311.018689 C -297.98966 309.089784 -421.200485 281.31121 -403.380932 365.549825 " transform="matrix(1.331052,0,0,1.332524,638.385789,-247.248546)"/>
</g>
</svg>
